# Blender v3.2.2 OBJ File: ''
# www.blender.org
mtllib probuilder_example.mtl
o probuilder_example
v 16.483936 5.196792 4.645202
v 16.483936 11.739233 4.645203
v 16.965401 11.739233 4.692623
v 16.965401 5.196792 4.692623
v 17.428364 11.739233 4.833061
v 17.428364 5.196792 4.833061
v 17.855030 11.739232 5.061119
v 17.855030 5.196792 5.061119
v 18.229008 11.739232 5.368036
v 18.229008 5.196792 5.368035
v 18.535925 11.739232 5.742014
v 18.535925 5.196792 5.742013
v 18.763985 11.739232 6.168682
v 18.763985 5.196792 6.168681
v 18.904423 11.739232 6.631645
v 18.904423 5.196792 6.631643
v 18.951843 11.739232 7.113108
v 18.951843 5.196792 7.113107
v 18.904423 11.739232 7.594573
v 18.904423 5.196791 7.594571
v 18.763985 11.739232 8.057535
v 18.763985 5.196791 8.057534
v 18.535925 11.739232 8.484203
v 18.535925 5.196791 8.484200
v 18.229008 11.739230 8.858181
v 18.229008 5.196791 8.858180
v 17.855030 11.739230 9.165096
v 17.855030 5.196791 9.165095
v 17.428364 11.739230 9.393155
v 17.428364 5.196791 9.393154
v 16.965401 11.739230 9.533593
v 16.965401 5.196791 9.533592
v 16.483936 11.739230 9.581013
v 16.483936 5.196791 9.581012
v 16.002472 11.739230 9.533593
v 16.002472 5.196791 9.533592
v 15.539511 11.739230 9.393155
v 15.539511 5.196791 9.393154
v 15.112843 11.739230 9.165095
v 15.112843 5.196791 9.165095
v 14.738865 11.739230 8.858181
v 14.738865 5.196791 8.858180
v 14.431950 11.739232 8.484203
v 14.431950 5.196791 8.484202
v 14.203890 11.739232 8.057535
v 14.203890 5.196791 8.057534
v 14.063452 11.739232 7.594573
v 14.063452 5.196791 7.594573
v 14.016032 11.739232 7.113108
v 14.016032 5.196792 7.113107
v 14.063452 11.739232 6.631643
v 14.063452 5.196792 6.631643
v 14.203890 11.739232 6.168682
v 14.203890 5.196792 6.168681
v 14.431950 11.739232 5.742015
v 14.431950 5.196792 5.742013
v 14.738864 11.739232 5.368036
v 14.738864 5.196792 5.368035
v 15.112843 11.739232 5.061119
v 15.112843 5.196792 5.061119
v 15.539511 11.739233 4.833061
v 15.539511 5.196792 4.833061
v 16.002472 11.739233 4.692623
v 16.002472 5.196792 4.692623
v -0.283282 7.507104 4.780972
v -0.990388 6.799999 4.780969
v -0.990388 6.800001 3.780970
v -0.283282 7.507105 3.780970
v -0.932128 7.940651 3.780969
v -0.932128 7.940650 4.780972
v -1.314812 7.016774 3.780970
v -1.314812 7.016772 4.780969
v -1.697495 8.092891 3.780970
v -1.697495 8.092892 4.780972
v -1.697495 7.092894 3.780969
v -1.697495 7.092892 4.780969
v -2.462862 7.940651 3.780969
v -2.462862 7.940650 4.780972
v -2.080179 7.016774 3.780969
v -2.080180 7.016772 4.780969
v -3.111709 7.507108 3.780969
v -3.111709 7.507105 4.780972
v -2.404602 6.800001 3.780969
v -2.404602 6.799999 4.780969
v -3.545254 6.858262 3.780969
v -3.545255 6.858260 4.780969
v -2.621375 6.475576 3.780969
v -2.621375 6.475575 4.780969
v -3.697496 6.092895 3.780969
v -3.697497 6.092893 4.780969
v -2.697496 6.092895 3.780970
v -2.697497 6.092893 4.780969
v -3.545255 5.327528 3.780970
v -3.545256 5.327526 4.780969
v -2.621375 5.710209 3.780970
v -2.621375 5.710208 4.780969
v -3.111710 4.678679 3.780970
v -3.111710 4.678678 4.780970
v -2.404603 5.385787 3.780970
v -2.404603 5.385785 4.780970
v -0.990387 6.800002 -1.719030
v -1.314812 7.016771 -1.719030
v -0.932127 7.940652 -1.719030
v -0.283281 7.507106 -1.719030
v -2.697498 6.092894 9.280969
v -2.621376 6.475574 9.280969
v -3.545256 6.858261 9.280969
v -3.697496 6.092894 9.280969
v -39.998699 -0.000010 59.997593
v -16.665352 -0.000003 16.664255
v -59.998695 -0.000009 39.997589
v -59.998695 -0.000010 59.997581
v -16.665352 -0.000001 8.330919
v -59.998695 -0.000003 19.997585
v -16.665352 0.000000 -0.002415
v -59.998680 -0.000002 -0.002422
v -16.665352 0.000001 -8.335748
v -59.998672 0.000001 -20.002422
v -16.665352 0.000003 -16.669085
v -59.998672 0.000007 -40.002430
v -39.998680 0.000010 -60.002415
v -59.998672 0.000007 -60.002422
v -19.998703 -0.000010 59.997593
v -8.332024 -0.000003 16.664255
v -8.332020 -0.000001 8.330923
v -8.332020 0.000000 -0.002414
v -8.332020 0.000001 -8.335748
v -8.332016 0.000003 -16.669085
v -19.998684 0.000010 -60.002415
v 0.001303 -0.000010 59.997593
v 0.001312 -0.000003 16.664259
v 0.001313 -0.000001 8.330923
v 0.001314 0.000000 -0.002412
v 0.001316 0.000001 -8.335746
v 0.001317 0.000003 -16.669081
v 0.001320 0.000010 -60.002415
v 20.001303 -0.000010 59.997593
v 8.334644 -0.000003 16.664263
v 8.334644 8.999997 16.664261
v 8.334648 9.000000 8.330927
v 0.001313 9.000000 8.330925
v 0.001312 8.999997 16.664261
v 8.334648 -0.000000 8.330923
v 8.334648 0.000000 -0.002411
v 8.334648 0.000001 -8.335744
v 8.334652 0.000004 -16.669077
v 20.001320 0.000010 -60.002415
v 40.001297 -0.000005 59.997593
v 16.667974 -0.000001 16.664263
v 16.667974 0.000002 8.330927
v 16.667978 0.000002 -0.002410
v 16.667982 0.000003 -8.335744
v 16.667982 0.000005 -16.669077
v 40.001316 0.000015 -60.002415
v 60.001312 -0.000010 59.997601
v 60.001312 -0.000007 39.997608
v 60.001312 -0.000003 19.997602
v 60.001328 0.000000 -0.002405
v 60.001328 0.000003 -20.002403
v 60.001328 0.000007 -40.002411
v 60.001328 0.000010 -60.002403
v 0.001312 8.499997 16.664261
v 0.001313 8.500000 8.330922
v 8.334644 8.499998 16.664261
v 8.334648 8.500001 8.330924
v -16.498686 8.999997 16.664261
v -16.498686 9.000000 8.330923
v -16.498686 8.500000 8.330920
v -16.498686 8.499997 16.664261
v -9.006237 7.435628 -6.419588
v -9.006237 7.915696 -6.565214
v -8.516577 7.915696 -6.516989
v -8.544987 7.435628 -6.374159
v -9.006237 10.542756 -5.477051
v -9.006237 10.779243 -5.034617
v -8.815182 10.779243 -5.015799
v -8.728867 10.542757 -5.449731
v -9.006237 6.993195 -6.183104
v -8.591123 6.993195 -6.142219
v -9.006237 10.224502 -5.864849
v -8.653210 10.224502 -5.830079
v -9.006237 6.605399 -5.864848
v -8.653210 6.605399 -5.830078
v -9.006237 9.836706 -6.183103
v -8.591123 9.836706 -6.142218
v -9.006237 6.287143 -5.477052
v -8.728867 6.287143 -5.449734
v -9.006237 9.394273 -6.419589
v -8.544987 9.394273 -6.374159
v -9.006237 6.050658 -5.034618
v -8.815182 6.050658 -5.015801
v -9.006237 8.914204 -6.565216
v -8.516577 8.914204 -6.516989
v -9.006237 5.905031 -4.554550
v -8.908837 5.905031 -4.544958
v -9.006234 8.414950 -6.614385
v -8.506983 8.414950 -6.565216
v -9.006237 10.924870 -4.554548
v -9.006237 10.974041 -4.055294
v -8.908837 10.924870 -4.544956
v -9.006237 5.855857 -4.055296
v -8.815182 10.924870 -4.516546
v -8.815182 5.905031 -4.516547
v -8.026914 8.414950 -6.419589
v -8.045732 7.915696 -6.374159
v -8.631467 10.779243 -4.960071
v -8.101460 7.435628 -6.239617
v -8.462154 10.542757 -5.368825
v -8.191960 6.993195 -6.021134
v -8.313750 10.224502 -5.727105
v -8.313750 6.605399 -5.727104
v -8.191960 9.836706 -6.021134
v -8.462154 6.287143 -5.368828
v -8.101460 9.394273 -6.239617
v -8.631467 6.050658 -4.960072
v -8.045732 8.914204 -6.374159
v -8.000905 10.224502 -5.559884
v -7.824090 9.836706 -5.824502
v -8.000905 6.605399 -5.559884
v -8.216351 6.287143 -5.237442
v -7.692706 9.394273 -6.021134
v -8.462154 6.050658 -4.869574
v -7.611800 8.914204 -6.142218
v -8.728867 5.905031 -4.470411
v -7.584480 8.414950 -6.183103
v -8.728867 10.924870 -4.470409
v -7.611800 7.915696 -6.142218
v -8.462154 10.779243 -4.869571
v -7.692706 7.435628 -6.021132
v -8.216351 10.542757 -5.237441
v -7.824090 6.993195 -5.824503
v -7.196686 8.414950 -5.864848
v -7.231456 7.915696 -5.830077
v -8.653210 10.924870 -4.408321
v -8.313750 10.779243 -4.747781
v -7.334430 7.435628 -5.727104
v -8.000905 10.542757 -5.060627
v -7.501648 6.993195 -5.559883
v -7.726690 10.224502 -5.334843
v -7.726690 6.605399 -5.334843
v -7.501651 9.836706 -5.559884
v -8.000905 6.287143 -5.060629
v -7.334430 9.394273 -5.727104
v -8.313750 6.050658 -4.747782
v -7.231456 8.914204 -5.830079
v -8.653210 5.905031 -4.408323
v -7.501651 6.605399 -5.060629
v -7.824090 6.287143 -4.845182
v -7.237030 9.836706 -5.237442
v -7.040399 9.394273 -5.368825
v -8.191960 6.050658 -4.599379
v -6.919316 8.914205 -5.449734
v -8.591123 5.905028 -4.332667
v -6.878429 8.414950 -5.477052
v -8.591123 10.924870 -4.332665
v -6.919316 7.915696 -5.449734
v -8.191960 10.779243 -4.599377
v -7.040399 7.435628 -5.368825
v -7.824090 10.542757 -4.845179
v -7.237030 6.993195 -5.237442
v -7.501651 10.224502 -5.060629
v -6.687374 7.915696 -5.015799
v -6.821914 7.435628 -4.960072
v -8.101460 10.779243 -4.430065
v -7.692706 10.542757 -4.599376
v -7.040399 6.993195 -4.869574
v -7.334430 10.224502 -4.747782
v -7.334430 6.605399 -4.747782
v -7.040399 9.836706 -4.869573
v -7.692706 6.287143 -4.599379
v -6.821914 9.394273 -4.960072
v -8.101460 6.050658 -4.430066
v -6.687374 8.914205 -5.015799
v -8.544987 5.905028 -4.246353
v -6.641944 8.414950 -5.034616
v -8.544987 10.924870 -4.246351
v -7.611800 6.287140 -4.332667
v -8.045732 6.050655 -4.246353
v -6.687374 9.394273 -4.516548
v -6.544544 8.914205 -4.544957
v -8.516577 5.905028 -4.152697
v -6.496316 8.414950 -4.554551
v -8.516577 10.924870 -4.152694
v -6.544544 7.915696 -4.544957
v -8.045732 10.779243 -4.246351
v -6.687372 7.435628 -4.516547
v -7.611800 10.542757 -4.332665
v -6.919316 6.993196 -4.470411
v -7.231456 10.224502 -4.408322
v -7.231456 6.605399 -4.408323
v -6.919316 9.836706 -4.470410
v -8.026914 10.779243 -4.055294
v -7.584480 10.542757 -4.055294
v -6.641944 7.435627 -4.055295
v -6.878429 6.993196 -4.055297
v -7.196686 10.224502 -4.055295
v -7.196686 6.605396 -4.055297
v -6.878429 9.836706 -4.055295
v -7.584480 6.287140 -4.055296
v -6.641944 9.394273 -4.055295
v -8.026914 6.050655 -4.055296
v -6.496316 8.914205 -4.055295
v -8.506983 5.905028 -4.055297
v -6.447145 8.414950 -4.055295
v -8.506983 10.924870 -4.055294
v -6.496316 7.915697 -4.055295
v -6.687374 9.394273 -3.594047
v -6.544544 8.914205 -3.565636
v -8.045732 6.050655 -3.864241
v -8.516577 5.905028 -3.957896
v -6.496316 8.414950 -3.556041
v -8.516577 10.924870 -3.957895
v -6.544544 7.915697 -3.565636
v -8.045732 10.779243 -3.864238
v -6.687372 7.435627 -3.594046
v -7.611800 10.542757 -3.777924
v -6.919316 6.993196 -3.640182
v -7.231456 10.224502 -3.702269
v -7.231456 6.605396 -3.702271
v -6.919316 9.836706 -3.640180
v -7.611800 6.287140 -3.777927
v -6.821914 7.435627 -3.150521
v -7.040399 6.993196 -3.241020
v -7.692706 10.542757 -3.511213
v -7.334430 10.224502 -3.362810
v -7.334430 6.605396 -3.362812
v -7.040401 9.836706 -3.241018
v -7.692706 6.287140 -3.511215
v -6.821917 9.394273 -3.150521
v -8.101460 6.050655 -3.680526
v -6.687374 8.914205 -3.094793
v -8.544987 5.905028 -3.864241
v -6.641946 8.414950 -3.075974
v -8.544987 10.924870 -3.864239
v -6.687374 7.915697 -3.094792
v -8.101460 10.779243 -3.680524
v -8.191960 6.050655 -3.511214
v -8.591123 5.905028 -3.777927
v -6.919316 8.914202 -2.660860
v -6.878429 8.414948 -2.633542
v -8.591123 10.924870 -3.777924
v -6.919316 7.915697 -2.660860
v -8.191960 10.779243 -3.511212
v -7.040399 7.435627 -2.741766
v -7.824090 10.542757 -3.265410
v -7.237030 6.993196 -2.873151
v -7.501651 10.224502 -3.049962
v -7.501651 6.605396 -3.049964
v -7.237030 9.836703 -2.873149
v -7.824090 6.287140 -3.265412
v -7.040399 9.394270 -2.741766
v -8.000905 10.542757 -3.049962
v -7.726690 10.224499 -2.775749
v -7.501651 6.993196 -2.550710
v -7.726690 6.605396 -2.775751
v -7.501651 9.836703 -2.550709
v -8.000905 6.287140 -3.049965
v -7.334430 9.394270 -2.383490
v -8.313750 6.050655 -3.362811
v -7.231456 8.914202 -2.280516
v -8.653210 5.905028 -3.702271
v -7.196686 8.414948 -2.245746
v -8.653210 10.924870 -3.702269
v -7.231456 7.915697 -2.280516
v -8.313750 10.779243 -3.362809
v -7.334430 7.435627 -2.383489
v -7.611800 8.914202 -1.968376
v -7.584483 8.414948 -1.927491
v -8.728867 10.924870 -3.640180
v -8.728867 5.905028 -3.640182
v -7.611800 7.915697 -1.968375
v -8.462154 10.779243 -3.241018
v -7.692706 7.435627 -2.089459
v -8.216351 10.542754 -2.873149
v -7.824090 6.993196 -2.286090
v -8.000905 10.224499 -2.550709
v -8.000905 6.605396 -2.550710
v -7.824090 9.836703 -2.286089
v -8.216351 6.287140 -2.873151
v -7.692706 9.394270 -2.089460
v -8.462154 6.050655 -3.241020
v -8.191960 6.993196 -2.089460
v -8.313750 6.605396 -2.383489
v -8.313750 10.224499 -2.383488
v -8.191960 9.836703 -2.089458
v -8.462154 6.287140 -2.741767
v -8.101460 9.394270 -1.870974
v -8.631467 6.050655 -3.150521
v -8.045732 8.914202 -1.736434
v -8.815182 5.905028 -3.594047
v -8.026917 8.414948 -1.691005
v -8.815182 10.924870 -3.594044
v -8.045732 7.915697 -1.736434
v -8.631467 10.779243 -3.150519
v -8.101462 7.435627 -1.870975
v -8.462154 10.542754 -2.741764
v -8.908837 5.905028 -3.565636
v -8.506983 8.414948 -1.545378
v -8.516577 7.915697 -1.593605
v -8.908837 10.924870 -3.565634
v -8.815182 10.779243 -3.094790
v -8.544987 7.435627 -1.736434
v -8.728867 10.542754 -2.660858
v -8.591123 6.993196 -1.968375
v -8.653210 10.224499 -2.280514
v -8.653210 6.605396 -2.280516
v -8.591123 9.836703 -1.968374
v -8.728867 6.287140 -2.660861
v -8.544987 9.394270 -1.736432
v -8.815182 6.050655 -3.094793
v -8.516577 8.914202 -1.593606
v -9.006237 6.605396 -2.245746
v -9.006237 6.287142 -2.633542
v -9.006237 9.836703 -1.927489
v -9.006237 9.394270 -1.691003
v -9.006237 6.050655 -3.075975
v -9.006237 8.914202 -1.545378
v -9.006237 5.905028 -3.556043
v -9.006237 8.414948 -1.496206
v -9.006237 10.924870 -3.556041
v -9.006237 7.915697 -1.545378
v -9.006237 10.779243 -3.075973
v -9.006237 7.435627 -1.691004
v -9.006237 10.542754 -2.633540
v -9.006237 6.993196 -1.927490
v -9.006237 10.224499 -2.245744
v -9.103636 10.924870 -3.565634
v -9.197291 10.779243 -3.094790
v -9.495897 7.915697 -1.593606
v -9.467486 7.435627 -1.736434
v -9.283607 10.542754 -2.660858
v -9.421350 6.993196 -1.968375
v -9.359263 10.224499 -2.280515
v -9.359263 6.605396 -2.280516
v -9.421350 9.836703 -1.968374
v -9.283607 6.287140 -2.660861
v -9.467486 9.394270 -1.736432
v -9.197291 6.050655 -3.094793
v -9.495897 8.914202 -1.593606
v -9.103636 5.905028 -3.565636
v -9.505490 8.414948 -1.545379
v -9.820513 9.836703 -2.089459
v -9.911011 9.394270 -1.870974
v -9.550319 6.287140 -2.741767
v -9.381006 6.050655 -3.150521
v -9.966741 8.914202 -1.736435
v -9.197291 5.905028 -3.594047
v -9.985559 8.414948 -1.691007
v -9.197291 10.924870 -3.594044
v -9.966741 7.915697 -1.736434
v -9.381006 10.779243 -3.150519
v -9.911014 7.435627 -1.870976
v -9.550319 10.542754 -2.741765
v -9.820513 6.993196 -2.089460
v -9.698720 10.224499 -2.383488
v -9.698720 6.605396 -2.383490
v -10.400674 7.915697 -1.968376
v -10.319767 7.435627 -2.089460
v -9.550319 10.779243 -3.241018
v -9.796123 10.542754 -2.873150
v -10.188383 6.993196 -2.286090
v -10.011568 10.224499 -2.550709
v -10.011568 6.605396 -2.550710
v -10.188383 9.836703 -2.286089
v -9.796123 6.287140 -2.873151
v -10.319767 9.394270 -2.089460
v -9.550319 6.050655 -3.241020
v -10.400674 8.914202 -1.968376
v -9.283607 5.905028 -3.640182
v -10.427990 8.414948 -1.927492
v -9.283607 10.924870 -3.640180
v -10.011568 6.287140 -3.049965
v -9.698723 6.050655 -3.362812
v -10.678043 9.394270 -2.383490
v -10.781017 8.914202 -2.280517
v -9.359263 5.905028 -3.702271
v -10.815787 8.414948 -2.245747
v -9.359263 10.924870 -3.702269
v -10.781017 7.915697 -2.280517
v -9.698723 10.779243 -3.362810
v -10.678043 7.435627 -2.383490
v -10.011568 10.542757 -3.049963
v -10.510822 6.993196 -2.550710
v -10.285783 10.224499 -2.775749
v -10.285783 6.605396 -2.775751
v -10.510822 9.836703 -2.550709
v -9.820513 10.779243 -3.511213
v -10.188383 10.542757 -3.265411
v -10.972075 7.435627 -2.741767
v -10.775443 6.993196 -2.873151
v -10.510822 10.224502 -3.049962
v -10.510822 6.605396 -3.049964
v -10.775443 9.836703 -2.873149
v -10.188383 6.287140 -3.265412
v -10.972073 9.394270 -2.741766
v -9.820513 6.050655 -3.511215
v -11.093157 8.914202 -2.660860
v -9.421350 5.905028 -3.777927
v -11.134044 8.414948 -2.633543
v -9.421350 10.924870 -3.777924
v -11.093157 7.915697 -2.660861
v -11.190557 9.394273 -3.150521
v -11.325099 8.914205 -3.094793
v -9.911014 6.050655 -3.680527
v -9.467486 5.905028 -3.864241
v -11.370527 8.414950 -3.075977
v -9.467486 10.924870 -3.864239
v -11.325099 7.915697 -3.094793
v -9.911014 10.779243 -3.680525
v -11.190559 7.435627 -3.150522
v -10.319767 10.542757 -3.511213
v -10.972073 6.993196 -3.241021
v -10.678043 10.224502 -3.362810
v -10.678043 6.605396 -3.362812
v -10.972073 9.836706 -3.241019
v -10.319767 6.287140 -3.511215
v -11.325099 7.435627 -3.594047
v -11.093157 6.993196 -3.640183
v -10.400674 10.542757 -3.777924
v -10.781017 10.224502 -3.702269
v -10.781017 6.605396 -3.702271
v -11.093157 9.836706 -3.640180
v -10.400674 6.287140 -3.777927
v -11.325099 9.394273 -3.594047
v -9.966741 6.050655 -3.864241
v -11.467927 8.914205 -3.565637
v -9.495897 5.905028 -3.957896
v -11.516154 8.414950 -3.556044
v -9.495897 10.924870 -3.957895
v -11.467927 7.915697 -3.565637
v -9.966741 10.779243 -3.864239
v -9.985559 6.050655 -4.055297
v -9.505490 5.905028 -4.055297
v -11.516154 8.914205 -4.055295
v -11.565327 8.414950 -4.055297
v -9.505490 10.924870 -4.055294
v -11.516154 7.915697 -4.055295
v -9.985559 10.779243 -4.055294
v -11.370529 7.435627 -4.055295
v -10.427990 10.542757 -4.055294
v -11.134044 6.993196 -4.055297
v -10.815787 10.224502 -4.055295
v -10.815787 6.605396 -4.055297
v -11.134044 9.836706 -4.055295
v -10.427990 6.287140 -4.055297
v -11.370529 9.394273 -4.055295
v -11.093157 6.993196 -4.470411
v -10.781017 6.605399 -4.408323
v -10.781017 10.224502 -4.408320
v -11.093157 9.836706 -4.470410
v -10.400674 6.287140 -4.332667
v -11.325099 9.394273 -4.516548
v -9.966741 6.050655 -4.246353
v -11.467927 8.914205 -4.544958
v -9.495897 5.905028 -4.152697
v -11.516154 8.414950 -4.554551
v -9.495897 10.924870 -4.152694
v -11.467927 7.915696 -4.544958
v -9.966741 10.779243 -4.246351
v -11.325099 7.435628 -4.516548
v -10.400674 10.542757 -4.332665
v -9.467486 10.924870 -4.246351
v -9.467486 5.905028 -4.246353
v -11.370527 8.414950 -5.034616
v -11.325099 7.915696 -5.015799
v -9.911011 10.779243 -4.430065
v -11.190557 7.435628 -4.960072
v -10.319767 10.542757 -4.599376
v -10.972073 6.993195 -4.869573
v -10.678043 10.224502 -4.747782
v -10.678043 6.605399 -4.747782
v -10.972073 9.836706 -4.869573
v -10.319767 6.287143 -4.599379
v -11.190557 9.394273 -4.960072
v -9.911011 6.050658 -4.430066
v -11.325099 8.914205 -5.015799
v -10.510822 10.224502 -5.060629
v -10.775443 9.836706 -5.237442
v -10.510822 6.605399 -5.060629
v -10.188383 6.287143 -4.845182
v -10.972073 9.394273 -5.368825
v -9.820513 6.050658 -4.599379
v -11.093157 8.914205 -5.449734
v -9.421350 5.905028 -4.332667
v -11.134041 8.414950 -5.477052
v -9.421350 10.924870 -4.332665
v -11.093157 7.915696 -5.449731
v -9.820513 10.779243 -4.599376
v -10.972073 7.435628 -5.368825
v -10.188383 10.542757 -4.845179
v -10.775443 6.993195 -5.237442
v -10.815784 8.414950 -5.864848
v -10.781017 7.915696 -5.830077
v -9.359263 10.924870 -4.408321
v -9.698720 10.779243 -4.747779
v -10.678043 7.435628 -5.727104
v -10.011568 10.542757 -5.060627
v -10.510822 6.993195 -5.559883
v -10.285783 10.224502 -5.334843
v -10.285783 6.605399 -5.334842
v -10.510822 9.836706 -5.559883
v -10.011568 6.287143 -5.060629
v -10.678043 9.394273 -5.727104
v -9.698720 6.050658 -4.747782
v -10.781017 8.914204 -5.830077
v -9.359263 5.905031 -4.408323
v -10.011568 6.605399 -5.559883
v -9.796120 6.287143 -5.237442
v -10.188383 9.836706 -5.824502
v -10.319767 9.394273 -6.021132
v -9.550319 6.050658 -4.869573
v -10.400674 8.914204 -6.142218
v -9.283607 5.905031 -4.470411
v -10.427990 8.414950 -6.183103
v -9.283607 10.924870 -4.470409
v -10.400674 7.915696 -6.142218
v -9.550319 10.779243 -4.869571
v -10.319767 7.435628 -6.021132
v -9.796120 10.542757 -5.237439
v -10.188383 6.993195 -5.824503
v -10.011568 10.224502 -5.559883
v -9.197291 10.924870 -4.516546
v -9.381006 10.779243 -4.960069
v -9.966741 7.915696 -6.374157
v -9.911011 7.435628 -6.239617
v -9.550319 10.542757 -5.368823
v -9.820513 6.993195 -6.021133
v -9.698720 10.224502 -5.727104
v -9.698720 6.605399 -5.727104
v -9.820513 9.836706 -6.021132
v -9.550319 6.287143 -5.368826
v -9.911011 9.394273 -6.239617
v -9.381006 6.050658 -4.960071
v -9.966741 8.914204 -6.374157
v -9.197291 5.905031 -4.516547
v -9.985558 8.414950 -6.419587
v -9.421350 9.836706 -6.142218
v -9.467486 9.394273 -6.374157
v -9.283607 6.287143 -5.449732
v -9.197291 6.050658 -5.015801
v -9.495897 8.914204 -6.516988
v -9.103636 5.905031 -4.544958
v -9.505488 8.414950 -6.565214
v -9.103636 10.924870 -4.544956
v -9.495897 7.915696 -6.516988
v -9.197291 10.779243 -5.015798
v -9.467486 7.435628 -6.374157
v -9.283607 10.542757 -5.449730
v -9.421350 6.993195 -6.142218
v -9.359263 10.224502 -5.830077
v -9.359263 6.605399 -5.830078
v -39.998699 1.999990 59.997593
v -59.998695 1.999991 39.997589
v -59.998695 1.999990 59.997581
v -59.998695 1.999997 19.997585
v -59.998680 1.999998 -0.002422
v -59.998672 2.000001 -20.002422
v -59.998672 2.000006 -40.002430
v -39.998680 2.000010 -60.002415
v -59.998672 2.000007 -60.002422
v -19.998703 1.999990 59.997593
v -19.998684 2.000010 -60.002415
v 0.001303 1.999990 59.997593
v 0.001320 2.000010 -60.002415
v 20.001303 1.999990 59.997593
v 20.001320 2.000010 -60.002415
v 40.001297 1.999995 59.997593
v 40.001316 2.000015 -60.002415
v 60.001312 1.999990 59.997601
v 60.001312 1.999993 39.997608
v 60.001312 1.999997 19.997602
v 60.001328 2.000000 -0.002405
v 60.001328 2.000003 -20.002403
v 60.001328 2.000006 -40.002411
v 60.001328 2.000010 -60.002403
v -40.692589 1.999990 61.038425
v -61.039528 1.999991 40.691479
v -61.039528 1.999990 61.038414
v -61.039528 1.999997 20.344530
v -61.039513 1.999998 -0.002422
v -61.039505 2.000001 -20.349367
v -61.039505 2.000007 -40.696320
v -40.692570 2.000010 -61.043247
v -61.039505 2.000008 -61.043255
v -20.345648 1.999990 61.038425
v -20.345629 2.000010 -61.043247
v 0.001303 1.999990 61.038425
v 0.001320 2.000010 -61.043247
v 20.348248 1.999990 61.038425
v 20.348265 2.000010 -61.043247
v 40.695187 1.999995 61.038425
v 40.695206 2.000015 -61.043247
v 61.042145 1.999990 61.038433
v 61.042145 1.999993 40.691498
v 61.042145 1.999997 20.344547
v 61.042160 2.000000 -0.002405
v 61.042160 2.000003 -20.349348
v 61.042160 2.000007 -40.696301
v 61.042160 2.000010 -61.043236
v -40.692589 -32.754242 61.038425
v -61.039528 -32.754242 40.691479
v -61.039528 -32.754242 61.038414
v -61.039528 -32.754234 20.344530
v -61.039513 -32.754234 -0.002422
v -61.039505 -32.754230 -20.349367
v -61.039505 -32.754223 -40.696320
v -40.692570 -32.754219 -61.043247
v -61.039505 -32.754223 -61.043255
v -20.345648 -32.754242 61.038425
v -20.345629 -32.754219 -61.043247
v 0.001303 -32.754242 61.038425
v 0.001320 -32.754219 -61.043247
v 20.348248 -32.754242 61.038425
v 20.348265 -32.754219 -61.043247
v 40.695187 -32.754238 61.038425
v 40.695206 -32.754215 -61.043247
v 61.042145 -32.754242 61.038433
v 61.042145 -32.754238 40.691498
v 61.042145 -32.754234 20.344547
v 61.042160 -32.754230 -0.002405
v 61.042160 -32.754227 -20.349348
v 61.042160 -32.754223 -40.696301
v 61.042160 -32.754219 -61.043236
vt -8.107912 4.281395
vt -8.107912 1.062973
vt -7.870104 1.062973
vt -7.870104 4.281395
vt -7.638933 1.062973
vt -7.638933 4.281395
vt -7.423212 1.062973
vt -7.423212 4.281395
vt -7.231295 1.062973
vt -7.231295 4.281395
vt -10.659286 4.283112
vt -10.659286 1.064690
vt -10.484993 1.064003
vt -10.484993 4.282425
vt -10.282433 1.063545
vt -10.282433 4.281853
vt -10.059387 1.063087
vt -10.059387 4.281509
vt -9.824440 1.062973
vt -9.824440 4.281395
vt -9.586632 1.062973
vt -9.586632 4.281395
vt -9.355061 1.063202
vt -9.355061 4.281624
vt -9.138596 1.063660
vt -9.138596 4.282082
vt -8.945648 1.064232
vt -8.945648 4.282654
vt -7.231409 4.281395
vt -7.231409 1.062973
vt -7.055857 1.062973
vt -7.055857 4.281395
vt -6.852610 1.062973
vt -6.852610 4.281395
vt -6.628763 1.062973
vt -6.628763 4.281395
vt -6.393702 1.062973
vt -6.393702 4.281395
vt -6.155893 1.062973
vt -6.155893 4.281395
vt -5.924723 1.062973
vt -5.924723 4.281395
vt -5.709116 1.062973
vt -5.709116 4.281395
vt -5.517084 1.062973
vt -5.517084 4.281395
vt -10.659258 1.067951
vt -10.659258 4.286087
vt -10.833780 4.284084
vt -10.833780 1.065948
vt -11.036455 4.282539
vt -11.036455 1.064404
vt -11.259615 4.281509
vt -11.259615 1.063374
vt -11.494619 4.281052
vt -11.494619 1.062916
vt -11.732428 4.281166
vt -11.732428 1.063030
vt -11.963942 4.281853
vt -11.963942 1.063717
vt -12.180235 4.283112
vt -12.180235 1.064919
vt -12.373011 4.284828
vt -12.373011 1.066692
vt -8.945620 4.281395
vt -8.945620 1.062973
vt -8.770182 1.062973
vt -8.770182 4.281395
vt -8.566706 1.062973
vt -8.566706 4.281395
vt -12.642748 3.041428
vt -12.811033 3.209656
vt -13.008902 3.341721
vt -13.228800 3.432816
vt -13.462202 3.479279
vt -13.700182 3.479279
vt -13.933584 3.432816
vt -14.153482 3.341721
vt -14.351351 3.209656
vt -14.519636 3.041428
vt -14.651873 2.843445
vt -14.742968 2.623489
vt -14.789373 2.390030
vt -14.789373 2.152222
vt -14.742968 1.918762
vt -14.651873 1.698807
vt -14.519636 1.501053
vt -14.351351 1.332596
vt -14.153482 1.200531
vt -13.933584 1.109436
vt -13.700182 1.062973
vt -13.462202 1.062973
vt -13.228800 1.109436
vt -13.008902 1.200531
vt -12.811033 1.332596
vt -12.642748 1.501053
vt -12.510511 1.698807
vt -12.419474 1.918762
vt -12.373011 2.152222
vt -12.373011 2.390259
vt -12.419474 2.623489
vt -12.510511 2.843445
vt -8.343088 1.062973
vt -8.343088 4.281395
vt -16.767771 3.209656
vt -16.935999 3.041428
vt -17.068178 2.843445
vt -17.159273 2.623489
vt -17.205736 2.390259
vt -17.205736 2.152222
vt -17.159273 1.918762
vt -17.068178 1.698807
vt -16.935999 1.501053
vt -16.767771 1.332596
vt -16.569902 1.200531
vt -16.349947 1.109436
vt -16.116602 1.062973
vt -15.878565 1.062973
vt -15.645105 1.109436
vt -15.425264 1.200531
vt -15.227396 1.332596
vt -15.059053 1.501053
vt -14.926874 1.698807
vt -14.835779 1.918762
vt -14.789431 2.152222
vt -14.789431 2.390259
vt -14.835779 2.623489
vt -14.926874 2.843445
vt -15.059053 3.041428
vt -15.227396 3.209656
vt -15.425264 3.341721
vt -15.645105 3.432816
vt -15.878565 3.479279
vt -16.116602 3.479279
vt -16.349947 3.432816
vt -16.569788 3.341721
vt -0.878279 1.084316
vt -0.528948 1.062916
vt -0.528948 1.553925
vt -0.878279 1.575325
vt -5.517002 3.768542
vt -5.197293 3.768542
vt -5.197293 4.260467
vt -5.517002 4.260467
vt -13.112671 6.184905
vt -12.953083 6.184905
vt -12.953083 6.676829
vt -13.112671 6.676829
vt -4.820607 3.768542
vt -4.820607 4.260467
vt -13.300926 6.184905
vt -13.300926 6.676829
vt -4.444290 3.768542
vt -4.444290 4.260467
vt -13.489182 6.184905
vt -13.489182 6.676829
vt -4.125629 3.768542
vt -4.125629 4.260467
vt -13.648769 6.184905
vt -13.648769 6.676829
vt -2.734396 3.780487
vt -3.056204 3.767899
vt -3.056204 3.276833
vt -2.734396 3.289536
vt -0.368959 3.765610
vt -0.529005 3.772247
vt -0.529005 3.281181
vt -0.368959 3.274658
vt -3.433573 3.763550
vt -3.433573 3.272598
vt -0.180532 3.763435
vt -0.180532 3.272369
vt -3.809168 3.768471
vt -3.809168 3.277405
vt 0.007551 3.765724
vt 0.007551 3.274773
vt -4.125654 3.781517
vt -4.125654 3.290565
vt 0.166681 3.772362
vt 0.166681 3.281410
vt 0.516012 3.260010
vt 0.516012 3.750961
vt -0.817253 4.275730
vt -0.625507 4.275730
vt -0.528976 4.757984
vt -0.912468 4.757984
vt -2.870180 4.871238
vt -2.734453 5.006693
vt -3.007738 5.415290
vt -3.279078 5.144380
vt 0.339144 4.254730
vt 0.161989 4.327915
vt -0.111010 3.918732
vt 0.243242 3.772362
vt -2.943537 4.694212
vt -3.426020 4.790314
vt 0.026377 4.463413
vt -0.382177 4.189671
vt -2.943537 4.502552
vt -3.426020 4.406994
vt -0.046980 4.640511
vt -0.528948 4.543922
vt -2.870180 4.325426
vt -3.279078 4.052756
vt -0.046980 4.832371
vt -0.528948 4.927643
vt -2.734453 4.189828
vt -3.007738 3.781546
vt 0.026377 5.009754
vt -0.382177 5.282352
vt -10.563585 4.283054
vt -10.371668 4.283054
vt -10.275423 4.764851
vt -10.659258 4.764851
vt 0.161989 5.145596
vt -0.111010 5.554035
vt -5.730567 4.658192
vt -5.693173 4.846447
vt -6.147074 5.034187
vt -6.221869 4.657677
vt 0.339144 5.219238
vt 0.243242 5.701378
vt -5.693173 4.470051
vt -6.147074 4.281338
vt -3.433573 1.062973
vt -3.056204 1.067207
vt -6.676828 6.495026
vt -7.168753 6.495026
vt -7.168753 4.281338
vt -6.676828 4.281338
vt -6.221869 6.495026
vt -6.676800 6.495026
vt -6.676800 4.281338
vt -6.221869 4.281338
vt -0.368959 1.065262
vt -0.180532 1.062973
vt -5.517002 1.062944
vt -5.197293 1.062944
vt -0.528948 4.254330
vt -0.878279 4.275730
vt -12.953112 3.479293
vt -12.496321 3.490351
vt -12.496321 6.190970
vt -12.953112 6.179913
vt -13.112671 3.479307
vt -12.953083 3.479307
vt 49.708672 0.038727
vt 38.230247 -21.277954
vt 59.546928 -9.799530
vt 59.546928 0.038727
vt 38.230247 -25.377228
vt 59.546928 -19.638245
vt 38.230247 -29.476501
vt 59.546928 -29.476501
vt 38.230247 -33.576233
vt 59.546928 -39.315216
vt 38.230247 -37.675507
vt 59.546928 -49.153473
vt 49.708672 -58.992188
vt 59.546928 -58.992188
vt 39.869957 0.038727
vt 34.130974 -21.277954
vt 34.130974 -25.377228
vt 34.130974 -29.476501
vt 34.130974 -33.576233
vt 34.130974 -37.675507
vt 39.869957 -58.992188
vt 30.031698 0.038727
vt 30.031698 -21.277954
vt 30.031698 -25.377228
vt 30.031698 -29.476501
vt 30.031698 -33.576233
vt 30.031698 -37.675507
vt 30.031698 -58.992188
vt 20.192984 0.038727
vt 25.931967 -21.277954
vt -33.587837 1.062973
vt -29.488565 1.062973
vt -29.488565 5.162361
vt -33.587837 5.162361
vt 25.931967 -25.377228
vt 25.931967 -29.476501
vt 25.931967 -33.576233
vt 25.931967 -37.675507
vt 20.192984 -58.992188
vt 10.354727 0.038727
vt 21.832693 -21.277954
vt 21.832693 -25.377228
vt 21.832693 -29.476501
vt 21.832693 -33.576233
vt 21.832693 -37.675507
vt 10.354727 -58.992188
vt 0.516012 0.038727
vt 0.516012 -9.799530
vt 0.516012 -19.638245
vt 0.516012 -29.476501
vt 0.516012 -39.315216
vt 0.516012 -49.153473
vt 0.516012 -58.992188
vt -21.297571 1.062973
vt -17.205622 1.066063
vt -17.205622 5.247047
vt -21.297571 5.244072
vt -37.769279 13.260773
vt -37.769279 9.167564
vt -33.587837 9.167564
vt -33.587837 13.260773
vt -38.261200 9.167679
vt -38.261192 13.260887
vt -42.442566 13.260887
vt -42.442566 9.167679
vt -25.389122 1.310051
vt -21.297571 1.308907
vt -21.297571 5.490234
vt -25.389122 5.491379
vt -3.425962 3.781631
vt -3.425962 7.873581
vt -3.671896 7.873581
vt -3.671896 3.781860
vt -38.015213 13.260773
vt -38.015213 9.167564
vt -38.015236 9.167679
vt -38.015236 13.260887
vt -25.389122 1.064003
vt -21.297571 1.062973
vt -29.488565 1.062973
vt -25.389292 1.062973
vt -25.389292 9.179810
vt -29.488565 9.179810
vt -38.015213 1.062859
vt -37.769279 1.062859
vt -38.261192 1.062973
vt -38.015236 1.062973
vt -29.488565 13.279083
vt -33.587837 13.279083
vt -4.642984 5.632370
vt -4.646990 5.396164
vt -4.405176 5.396164
vt -4.415247 5.632370
vt -1.868364 4.434259
vt -1.861383 4.216722
vt -1.767199 4.210599
vt -1.731493 4.425376
vt -4.636690 5.850037
vt -4.431726 5.850037
vt -1.874315 4.624932
vt -1.700136 4.613617
vt -4.628107 6.040810
vt -4.453814 6.040810
vt -4.636690 4.451225
vt -4.628107 4.260452
vt -4.453814 4.260452
vt -4.431726 4.451225
vt -17.015078 4.345081
vt -17.205736 4.338558
vt -17.182734 4.165581
vt -16.996996 4.209183
vt -4.642984 4.668892
vt -4.415247 4.668892
vt -16.797585 4.352520
vt -16.785107 4.258907
vt -4.646990 4.904984
vt -4.405176 4.904984
vt -16.561548 4.360531
vt -16.555199 4.312809
vt -4.648249 5.150574
vt -4.401743 5.150574
vt -1.853716 3.980687
vt -1.845591 3.735226
vt -1.805651 3.977569
vt -16.316072 4.368942
vt -1.759188 3.965137
vt -16.539635 4.267262
vt -4.161989 5.150574
vt -4.170000 5.396164
vt -1.675875 4.186209
vt -4.193804 5.632370
vt -1.599085 4.389956
vt -4.232370 5.850037
vt -1.531565 4.568556
vt -4.284327 6.040810
vt -4.284327 4.260452
vt -4.232370 4.451225
vt -17.126369 4.000443
vt -16.952766 4.079407
vt -4.193804 4.668892
vt -16.754610 4.169472
vt -4.170000 4.904984
vt -4.126169 4.260452
vt -4.046404 4.451225
vt -17.038937 3.849438
vt -16.884043 3.960732
vt -3.987123 4.668892
vt -16.707287 4.087761
vt -3.950617 4.904984
vt -16.515543 4.225605
vt -3.938372 5.150574
vt -1.715929 3.943866
vt -3.950617 5.396164
vt -1.591188 4.144495
vt -3.987123 5.632370
vt -1.476061 4.329389
vt -4.046404 5.850037
vt -1.375010 4.491466
vt -4.126169 6.040810
vt -3.739244 5.150574
vt -3.755495 5.396164
vt -1.677706 3.914583
vt -1.516230 4.087046
vt -3.803217 5.632370
vt -1.367228 4.245990
vt -3.880922 5.850037
vt -1.236536 4.385322
vt -17.166084 3.758057
vt -17.030586 3.603962
vt -16.923698 3.718403
vt -1.291925 4.624475
vt -1.129076 4.499662
vt -16.793465 3.857792
vt -3.880922 4.451225
vt -3.803217 4.668892
vt -16.644920 4.016865
vt -3.755495 4.904984
vt -16.483728 4.189442
vt -16.785107 3.612316
vt -16.684572 3.774479
vt -8.873751 4.690063
vt -8.786489 4.472855
vt -8.636229 4.472282
vt -8.706781 4.689491
vt -16.569902 3.959473
vt -8.927481 4.926041
vt -8.750212 4.925354
vt -16.445505 4.160202
vt -8.945677 5.171516
vt -8.764975 5.170830
vt -1.646006 3.878406
vt -8.927595 5.417221
vt -8.750383 5.416534
vt -1.453859 4.016078
vt -8.873980 5.653542
vt -8.707010 5.652969
vt -1.276819 4.142964
vt -8.786833 5.871552
vt -8.636572 5.870979
vt -1.121408 4.254187
vt -16.867622 3.479279
vt -0.993692 4.345468
vt -8.544333 5.416077
vt -8.512976 5.652512
vt -1.406595 3.934324
vt -1.208155 4.024261
vt -8.461935 5.870636
vt -1.034090 4.103110
vt -8.541758 6.062325
vt -8.393270 6.061981
vt -8.541300 4.282082
vt -8.392813 4.281738
vt -8.461592 4.471825
vt -16.628496 3.535355
vt -16.561548 3.713997
vt -8.512690 4.689034
vt -16.485161 3.917816
vt -8.544218 4.924896
vt -16.402306 4.138973
vt -8.554918 5.170372
vt -1.621859 3.836720
vt -16.429085 3.678692
vt -16.393892 3.893497
vt -8.299028 4.688690
vt -8.317396 4.924553
vt -16.355783 4.126556
vt -8.323633 5.170029
vt -1.606409 3.791144
vt -8.317511 5.415733
vt -1.376268 3.844903
vt -8.299314 5.652283
vt -1.163980 3.894456
vt -8.269617 5.870407
vt -0.977900 3.937901
vt -8.229734 6.061752
vt -8.229277 4.281509
vt -8.269274 4.471596
vt -16.459866 3.490437
vt -1.363909 3.751276
vt -1.146013 3.758543
vt -8.074209 5.652168
vt -8.067057 5.870293
vt -0.955011 3.764909
vt -8.057444 6.061752
vt -8.056986 4.281395
vt -8.066713 4.471481
vt -16.285746 3.479279
vt -16.292213 3.669937
vt -8.073923 4.688690
vt -16.299648 3.887432
vt -8.078444 4.924438
vt -16.307718 4.123466
vt -8.079988 5.170029
vt -1.600115 3.743408
vt -8.078558 5.415619
vt -7.846128 4.688690
vt -7.836573 4.924553
vt -16.206038 3.899906
vt -16.259996 4.129818
vt -7.833368 5.170029
vt -1.603205 3.695372
vt -7.836687 5.415733
vt -1.369974 3.657034
vt -7.846357 5.652283
vt -1.154940 3.621729
vt -7.862036 5.870407
vt -0.966341 3.590773
vt -7.883036 6.061752
vt -7.882578 4.281509
vt -7.861635 4.471596
vt -16.112768 3.502281
vt -16.156313 3.688019
vt -7.624514 5.652512
vt -7.662336 5.870636
vt -1.190302 3.489264
vt -1.011431 3.422187
vt -7.713263 6.061981
vt -7.712805 4.281738
vt -7.661993 4.471825
vt -15.947573 3.558643
vt -16.026537 3.732250
vt -7.624228 4.689034
vt -16.116659 3.930405
vt -7.601053 4.924896
vt -16.214392 4.145382
vt -7.593271 5.170372
vt -1.615564 3.648851
vt -7.601168 5.416077
vt -1.394350 3.565810
vt -16.034948 3.977726
vt -16.172735 4.169472
vt -7.380926 4.925354
vt -7.368853 5.170830
vt -1.636850 3.605664
vt -7.381041 5.416534
vt -1.436121 3.481081
vt -7.417147 5.652969
vt -1.250956 3.366268
vt -7.475740 5.870979
vt -1.088449 3.265632
vt -7.554590 6.062325
vt -7.554075 4.282082
vt -7.475397 4.472282
vt -15.796568 3.646076
vt -15.907919 3.800972
vt -7.416918 4.689491
vt -1.334269 3.257449
vt -1.194651 3.127130
vt -15.705187 3.518932
vt -15.551149 3.654430
vt -15.665533 3.761318
vt -0.955011 3.183063
vt -1.079866 3.020199
vt -15.804979 3.891552
vt -7.309000 4.472855
vt -7.232038 4.690063
vt -15.963995 4.040096
vt -7.184717 4.926041
vt -16.136629 4.201286
vt -7.168753 5.171516
vt -1.666147 3.567455
vt -7.184832 5.417221
vt -1.493570 3.406122
vt -7.232325 5.653542
vt -7.309401 5.871552
vt -15.426466 4.369400
vt -15.408442 4.123810
vt -15.230028 4.123810
vt -15.244505 4.369400
vt -1.702311 3.535684
vt -16.107332 4.239510
vt -15.408442 4.614990
vt -15.230028 4.614990
vt -1.564524 3.343809
vt -15.355112 4.851196
vt -15.186998 4.851196
vt -1.437380 3.166984
vt -15.268480 5.068863
vt -15.117189 5.068863
vt -1.325800 3.012002
vt -15.426466 3.817394
vt -15.559504 3.899906
vt -1.234018 2.884815
vt -15.721666 4.000443
vt -15.355112 3.887718
vt -15.268480 3.670052
vt -15.117189 3.670052
vt -15.186998 3.887718
vt -15.906603 4.115112
vt -15.023233 5.259636
vt -14.941809 5.068863
vt -14.874060 5.259636
vt -15.023233 3.479279
vt -14.874060 3.479279
vt -14.941809 3.670052
vt -15.482542 4.056519
vt -15.661184 4.123466
vt -14.992105 3.887718
vt -15.865004 4.199856
vt -15.023119 4.123810
vt -16.086103 4.282711
vt -15.033533 4.369400
vt -1.744081 3.511594
vt -15.023119 4.614990
vt -1.646235 3.296545
vt -14.992105 4.851196
vt -1.556055 3.098362
vt -1.476862 2.924655
vt -16.073744 4.329231
vt -14.801676 4.369400
vt -14.795668 4.614990
vt -1.789629 3.496087
vt -1.735727 3.266132
vt -14.777872 4.851196
vt -1.685831 3.054216
vt -14.748976 5.068863
vt -1.642000 2.868464
vt -14.710123 5.259636
vt -14.710123 3.479279
vt -14.748976 3.670052
vt -15.437624 4.225147
vt -15.625879 4.255932
vt -14.777872 3.887718
vt -15.840685 4.291122
vt -14.795668 4.123810
vt -15.426466 4.399269
vt -15.617125 4.392803
vt -14.546186 3.670052
vt -14.552538 3.887718
vt -15.834620 4.385365
vt -14.556429 4.123810
vt -16.070654 4.377296
vt -14.557745 4.369400
vt -1.837351 3.489779
vt -14.556429 4.614990
vt -1.829340 3.253758
vt -14.552538 4.851196
vt -1.821787 3.036235
vt -14.546186 5.068863
vt -1.815035 2.845591
vt -14.537603 5.259636
vt -14.537603 3.479279
vt -1.885416 3.492897
vt -1.923525 3.259881
vt -14.314615 4.614990
vt -14.324743 4.851196
vt -1.958544 3.045133
vt -14.341166 5.068863
vt -1.989214 2.856906
vt -14.363310 5.259636
vt -14.363310 3.479279
vt -14.341166 3.670052
vt -15.449469 4.572247
vt -15.635206 4.528702
vt -14.324743 3.887718
vt -15.847094 4.478977
vt -14.314615 4.123810
vt -16.077005 4.425018
vt -14.311182 4.369400
vt -14.141867 3.670052
vt -14.103243 3.887718
vt -15.679438 4.658478
vt -15.877535 4.568356
vt -14.079496 4.123810
vt -16.092512 4.470623
vt -14.071486 4.369400
vt -1.931879 3.505328
vt -14.079496 4.614990
vt -2.014734 3.284271
vt -14.103243 4.851196
vt -2.091066 3.080538
vt -14.141867 5.068863
vt -2.157785 2.901967
vt -14.193766 5.259636
vt -14.193766 3.479279
vt -15.505774 4.737442
vt -13.860113 4.614990
vt -13.896620 4.851196
vt -2.099535 3.325985
vt -2.214090 3.141106
vt -13.955900 5.068863
vt -2.314341 2.979057
vt -14.035608 5.259636
vt -14.035608 3.479279
vt -13.955900 3.670052
vt -15.593264 4.888447
vt -15.748159 4.777096
vt -13.896620 3.887718
vt -15.924913 4.650066
vt -13.860113 4.123810
vt -16.116659 4.512280
vt -13.847811 4.369400
vt -1.975138 3.526600
vt -15.838682 4.880035
vt -15.987226 4.721020
vt -13.712770 3.887718
vt -13.664934 4.123810
vt -16.148474 4.548386
vt -13.648798 4.369400
vt -2.013247 3.555882
vt -13.664934 4.614990
vt -2.174494 3.383434
vt -13.712770 4.851196
vt -2.322809 3.224504
vt -13.790419 5.068863
vt -2.452814 3.085201
vt -15.466120 4.979828
vt -15.601618 5.133865
vt -15.708506 5.019482
vt -2.396395 2.846077
vt -2.559244 2.970889
vt -13.790419 3.670052
vt -2.236750 3.454402
vt -2.413332 3.327530
vt -1.115801 1.256435
vt -1.028769 1.473129
vt -1.195967 1.471127
vt -1.266233 1.254604
vt -2.567942 3.216336
vt -15.764582 5.258549
vt -15.847094 5.125511
vt -2.694628 3.125084
vt -15.947573 4.963348
vt -1.029226 2.436550
vt -1.116430 2.655132
vt -1.266863 2.653301
vt -1.196424 2.434547
vt -16.062243 4.778412
vt -0.975496 2.199886
vt -1.152937 2.197712
vt -16.186697 4.577682
vt -0.957300 1.954067
vt -1.138231 1.951950
vt -2.045061 3.592060
vt -0.975267 1.708706
vt -1.152708 1.706589
vt -1.390574 2.433002
vt -1.359102 2.196053
vt -16.147043 4.820011
vt -16.229898 4.598911
vt -1.348402 1.950233
vt -2.069208 3.633745
vt -1.358873 1.704929
vt -2.284014 3.536156
vt -1.390173 1.469582
vt -2.481997 3.446234
vt -1.440985 1.253231
vt -2.655260 3.367413
vt -1.360819 1.065376
vt -1.509478 1.064175
vt -1.361677 2.845562
vt -1.510279 2.844360
vt -1.441671 2.651871
vt -16.003706 5.202473
vt -16.070654 5.023830
vt -1.603949 1.468494
vt -1.633360 1.252258
vt -2.526056 3.576038
vt -2.711451 3.532622
vt -1.673071 1.063316
vt -1.673929 2.843559
vt -1.634047 2.650898
vt -16.172277 5.247391
vt -16.203119 5.059135
vt -1.604349 2.431915
vt -16.238253 4.844330
vt -1.586039 2.194908
vt -16.276421 4.611271
vt -1.579802 1.949089
vt -2.084658 3.679321
vt -1.585810 1.703785
vt -2.314455 3.625577
vt -16.332497 4.850395
vt -16.324486 4.614361
vt -1.825048 2.194336
vt -1.823446 1.948460
vt -2.090952 3.727057
vt -1.824820 1.703213
vt -2.326815 3.719190
vt -1.829054 1.467922
vt -2.544024 3.711951
vt -1.835978 1.251743
vt -2.734339 3.705614
vt -1.845419 1.062916
vt -1.846220 2.843102
vt -1.836664 2.650440
vt -16.346458 5.258549
vt -16.339931 5.067890
vt -1.829512 2.431343
vt -2.041056 1.251743
vt -2.019770 1.062916
vt -2.020628 2.843102
vt -2.041685 2.650440
vt -16.519434 5.235546
vt -16.475832 5.049809
vt -2.057364 2.431343
vt -16.426109 4.837921
vt -2.066919 2.194336
vt -16.372204 4.608009
vt -2.070066 1.948460
vt -2.087862 3.775094
vt -2.066690 1.703213
vt -2.320749 3.813432
vt -2.056906 1.467922
vt -2.535212 3.848780
vt -2.723009 3.879750
vt -2.075388 3.821614
vt -16.417751 4.592503
vt -2.310163 1.949089
vt -2.302153 1.703785
vt -2.296259 3.904670
vt -2.278692 1.468494
vt -2.499735 3.981231
vt -2.240641 1.252258
vt -2.677919 4.048336
vt -2.189543 1.063316
vt -2.190344 2.843559
vt -2.241327 2.650898
vt -16.684572 5.179241
vt -16.605608 5.005577
vt -2.279150 2.431915
vt -16.515543 4.807480
vt -2.302382 2.194908
vt -2.348959 2.844360
vt -2.427809 2.651871
vt -16.835579 5.091751
vt -16.724283 4.936855
vt -2.486345 2.433002
vt -16.597254 4.760101
vt -2.522337 2.196053
vt -16.459408 4.568356
vt -2.534410 1.950233
vt -2.054102 3.864801
vt -2.522108 1.704929
vt -2.254602 3.989399
vt -2.485888 1.469582
vt -2.439196 4.104226
vt -2.427122 1.253231
vt -2.600901 4.204891
vt -2.348101 1.064175
vt -2.734339 1.951950
vt -2.718203 1.706589
vt -2.024920 3.903010
vt -2.197153 4.064358
vt -2.670595 1.471127
vt -2.355768 4.213059
vt -2.593348 1.254604
vt -2.494699 4.343393
vt -16.926958 5.218895
vt -17.081051 5.083397
vt -16.966610 4.976509
vt -2.490294 2.845562
vt -2.594034 2.653301
vt -16.827221 4.846333
vt -2.671053 2.434547
vt -16.668148 4.697731
vt -2.718431 2.197769
vt -16.495571 4.536541
vt -17.072701 4.837921
vt -16.910534 4.737442
vt -5.445559 4.668892
vt -5.359041 4.451225
vt -5.207750 4.451225
vt -5.277559 4.668892
vt -16.725542 4.622772
vt -5.499002 4.904984
vt -5.320475 4.904984
vt -16.524813 4.498318
vt -5.516970 5.150574
vt -5.335009 5.150574
vt -1.988642 3.934782
vt -5.499002 5.396164
vt -5.320475 5.396164
vt -2.126200 4.126671
vt -5.445559 5.632370
vt -5.277559 5.632370
vt -2.252771 4.303511
vt -5.359041 5.850037
vt -5.207750 5.850037
vt -2.363550 4.458521
vt -17.205736 4.920433
vt -2.608568 4.450367
vt -2.454416 4.585751
vt -1.946985 3.958886
vt -2.044374 4.173935
vt -5.113565 5.396164
vt -5.082666 5.632370
vt -2.134096 4.372132
vt -5.032312 5.850037
vt -2.212488 4.545868
vt -5.113794 6.040810
vt -4.964563 6.040810
vt -5.113794 4.260452
vt -4.964563 4.260452
vt -5.032312 4.451225
vt -17.149660 4.681309
vt -16.971018 4.614361
vt -5.082666 4.668892
vt -16.767199 4.537971
vt -5.113565 4.904984
vt -16.546043 4.455116
vt -5.124094 5.150574
vt -4.839479 4.451225
vt -4.868319 4.668892
vt -17.006325 4.481895
vt -16.791515 4.446762
vt -4.886171 4.904984
vt -16.558458 4.408596
vt -4.892122 5.150574
vt -1.901438 3.974379
vt -4.886171 5.396164
vt -1.954996 4.204348
vt -4.868319 5.632370
vt -2.004320 4.416278
vt -4.839479 5.850037
vt -2.047350 4.602058
vt -4.800570 6.040810
vt -4.800570 4.260452
vt -17.194576 4.512737
vt 54.755745 19.679535
vt 54.755745 29.499939
vt 53.771950 29.500854
vt 53.771950 19.680450
vt 52.788101 0.038727
vt 52.788101 9.862793
vt 51.804237 9.862793
vt 51.804237 0.038727
vt 54.755737 58.957031
vt 54.755737 49.137085
vt 55.739578 49.137543
vt 55.739578 58.957031
vt 54.755737 29.497650
vt 54.755745 19.678162
vt 55.739578 19.678619
vt 55.739578 29.498108
vt 53.771950 9.862793
vt 53.771950 19.686401
vt 52.788101 19.686401
vt 52.788101 9.862793
vt 54.755745 39.317596
vt 55.739578 39.318054
vt 53.771950 29.510468
vt 52.788101 29.510468
vt 54.755745 9.858215
vt 54.755745 0.038727
vt 55.739586 0.039185
vt 55.739586 9.858673
vt 52.788101 19.686401
vt 51.804237 19.686401
vt 53.771950 49.158142
vt 53.771950 58.981750
vt 52.788101 58.981750
vt 52.788101 49.158142
vt 54.755714 9.859131
vt 53.771950 9.860046
vt 54.755745 39.320343
vt 53.771950 39.321259
vt 54.755745 49.141205
vt 54.755745 58.961609
vt 53.771950 58.962067
vt 53.771950 49.141663
vt 52.788086 29.510468
vt 51.804237 29.510468
vt 52.788086 49.158142
vt 52.788086 58.981750
vt 51.804237 58.981750
vt 51.804237 49.158142
vt 52.788086 39.334076
vt 51.804237 39.334076
vt 53.771950 39.334076
vt 52.788101 39.334076
vt 54.755714 0.038727
vt 53.771950 0.039642
vt 53.771950 0.038727
vt 52.788101 0.038727
vt -9.834482 -58.479950
vt -19.672739 -58.479950
vt -19.502451 -58.992188
vt -9.492990 -58.992188
vt -39.349709 -58.479950
vt -49.188423 -58.479950
vt -49.529915 -58.992188
vt -39.520454 -58.992188
vt -59.026680 -28.964722
vt -59.026680 -19.126007
vt -59.538918 -18.955261
vt -59.538918 -28.964722
vt -49.188423 0.550964
vt -39.349709 0.550964
vt -39.520454 1.062744
vt -49.529915 1.062744
vt 0.004232 -28.964722
vt 0.004232 -38.802979
vt 0.516012 -38.973724
vt 0.516012 -28.964722
vt -59.026680 -38.802979
vt -59.538918 -38.973724
vt -59.026680 -58.479950
vt -59.538918 -58.992188
vt -59.026680 0.550964
vt -59.538918 1.062744
vt 0.004232 0.550964
vt 0.004232 -9.287750
vt 0.516012 -8.946259
vt 0.516012 1.062744
vt -29.511454 0.550964
vt -19.672739 0.550964
vt -19.502451 1.062744
vt -29.511454 1.062744
vt 0.004232 -48.641693
vt 0.516012 -48.983185
vt 0.004232 -19.126007
vt 0.516012 -18.955261
vt -59.026680 -9.287750
vt -59.538918 -8.946259
vt 0.004232 -58.479950
vt 0.516012 -58.992188
vt -59.026680 -48.641693
vt -59.538918 -48.983185
vt -29.511454 -58.479950
vt -29.511454 -58.992188
vt -9.834482 0.550964
vt -9.492990 1.062744
vt -42.442360 51.017578
vt -42.442360 61.007812
vt -59.538918 61.003235
vt -59.538918 51.013000
vt 51.804314 49.993103
vt 51.804314 59.984253
vt 34.709129 59.997070
vt 34.709129 50.005920
vt -42.442360 11.057556
vt -42.442360 21.047791
vt -59.538918 21.043213
vt -59.538918 11.052979
vt 17.612541 40.015686
vt 17.612541 30.021332
vt 34.709045 30.021332
vt 34.709045 40.015686
vt -42.442360 41.027344
vt -59.538918 41.022766
vt 17.612541 20.027435
vt 34.709045 20.027435
vt -42.442360 1.067322
vt -59.538918 1.062744
vt 51.804314 20.020569
vt 51.804314 30.011719
vt 34.709129 30.024536
vt 34.709129 20.033386
vt 0.516041 10.033081
vt 0.516041 0.038727
vt 17.612555 0.038727
vt 17.612555 10.033081
vt 17.612541 60.004395
vt 17.612541 50.010040
vt 34.709045 50.010040
vt 34.709045 60.004395
vt 0.516041 40.015686
vt 0.516041 30.021332
vt 17.612541 30.021332
vt 17.612541 40.015686
vt 0.516041 20.027435
vt 17.612555 20.027435
vt 17.612541 10.033081
vt 34.709045 10.033081
vt -42.442360 31.037109
vt -59.538918 31.032532
vt 0.516041 50.010040
vt 17.612541 50.010040
vt 51.804314 40.002869
vt 34.709129 40.015686
vt 17.612541 0.038727
vt 34.709045 0.038727
vt 0.516041 60.004395
vt 17.612541 60.004395
vt 51.804314 0.039185
vt 51.804314 10.030334
vt 34.709129 10.043152
vt 34.709129 0.052002
vn 0.0980 0.0000 -0.9952
vn 0.2903 0.0000 -0.9569
vn 0.4714 0.0000 -0.8819
vn 0.6344 -0.0000 -0.7730
vn 0.7730 0.0000 -0.6344
vn 0.8819 0.0000 -0.4714
vn 0.9569 0.0000 -0.2903
vn 0.9952 -0.0000 -0.0980
vn 0.9952 -0.0000 0.0980
vn 0.9569 -0.0000 0.2903
vn 0.8819 -0.0000 0.4714
vn 0.7730 -0.0000 0.6344
vn 0.6344 -0.0000 0.7730
vn 0.4714 -0.0000 0.8819
vn 0.2903 -0.0000 0.9569
vn 0.0980 -0.0000 0.9952
vn -0.0980 -0.0000 0.9952
vn -0.2903 -0.0000 0.9569
vn -0.4714 -0.0000 0.8819
vn -0.6344 -0.0000 0.7730
vn -0.7730 -0.0000 0.6344
vn -0.8819 -0.0000 0.4714
vn -0.9569 0.0000 0.2903
vn -0.9952 0.0000 0.0980
vn -0.9952 0.0000 -0.0980
vn -0.9569 0.0000 -0.2903
vn -0.8819 0.0000 -0.4714
vn -0.7730 0.0000 -0.6344
vn -0.6344 0.0000 -0.7730
vn -0.4714 0.0000 -0.8819
vn 0.0000 1.0000 0.0000
vn -0.2903 0.0000 -0.9569
vn -0.0980 0.0000 -0.9952
vn -0.0000 -1.0000 -0.0000
vn 0.7071 -0.7071 -0.0000
vn 0.5556 0.8315 0.0000
vn -0.5556 -0.8315 -0.0000
vn 0.1951 0.9808 0.0000
vn -0.1951 -0.9808 -0.0000
vn -0.1951 0.9808 0.0000
vn 0.1951 -0.9808 -0.0000
vn -0.5556 0.8315 0.0000
vn 0.5556 -0.8315 -0.0000
vn -0.8315 0.5556 0.0000
vn 0.8315 -0.5556 -0.0000
vn -0.9808 0.1951 -0.0000
vn 0.9808 -0.1951 0.0000
vn -0.9808 -0.1951 -0.0000
vn 0.9808 0.1951 0.0000
vn -0.8315 -0.5556 -0.0000
vn 0.8315 0.5556 0.0000
vn -0.0000 0.0000 -1.0000
vn -0.0000 -0.0000 1.0000
vn 0.3827 0.9239 0.0000
vn -0.9239 0.3827 -0.0000
vn -1.0000 0.0000 -0.0000
vn 1.0000 0.0000 0.0000
vn 0.0938 -0.2890 -0.9527
vn 0.0464 0.8810 -0.4709
vn 0.0865 -0.4696 -0.8786
vn 0.0624 0.7715 -0.6332
vn 0.0759 -0.6326 -0.7708
vn 0.0759 0.6326 -0.7708
vn 0.0624 -0.7715 -0.6332
vn 0.0865 0.4696 -0.8786
vn 0.0464 -0.8810 -0.4709
vn 0.0938 0.2890 -0.9527
vn 0.0286 -0.9565 -0.2902
vn 0.0975 0.0975 -0.9904
vn 0.0097 0.9951 -0.0980
vn 0.0097 -0.9951 -0.0980
vn 0.0975 -0.0975 -0.9904
vn 0.0286 0.9565 -0.2902
vn 0.0286 0.9951 -0.0942
vn 0.0286 -0.9951 -0.0942
vn 0.2889 -0.0975 -0.9524
vn 0.0846 0.9565 -0.2790
vn 0.2779 -0.2890 -0.9161
vn 0.1374 0.8810 -0.4528
vn 0.2563 -0.4696 -0.8448
vn 0.1847 0.7715 -0.6088
vn 0.2248 -0.6326 -0.7412
vn 0.2248 0.6326 -0.7412
vn 0.1847 -0.7715 -0.6088
vn 0.2563 0.4696 -0.8448
vn 0.1374 -0.8810 -0.4528
vn 0.2779 0.2890 -0.9161
vn 0.0846 -0.9565 -0.2790
vn 0.2889 0.0975 -0.9524
vn 0.3651 0.6326 -0.6831
vn 0.2999 -0.7715 -0.5611
vn 0.4162 0.4696 -0.7786
vn 0.2230 -0.8810 -0.4173
vn 0.4513 0.2890 -0.8443
vn 0.1374 -0.9565 -0.2571
vn 0.4691 0.0976 -0.8777
vn 0.0464 0.9951 -0.0869
vn 0.0464 -0.9951 -0.0869
vn 0.4691 -0.0976 -0.8777
vn 0.1374 0.9565 -0.2571
vn 0.4513 -0.2890 -0.8443
vn 0.2231 0.8810 -0.4173
vn 0.4162 -0.4696 -0.7786
vn 0.2999 0.7715 -0.5611
vn 0.3651 -0.6326 -0.6831
vn 0.6314 -0.0976 -0.7693
vn 0.1850 0.9565 -0.2254
vn 0.6073 -0.2890 -0.7400
vn 0.3002 0.8810 -0.3658
vn 0.5601 -0.4696 -0.6825
vn 0.4036 0.7715 -0.4918
vn 0.4913 -0.6326 -0.5987
vn 0.4913 0.6326 -0.5987
vn 0.4036 -0.7715 -0.4918
vn 0.5601 0.4696 -0.6825
vn 0.3002 -0.8810 -0.3658
vn 0.6073 0.2890 -0.7400
vn 0.1850 -0.9565 -0.2254
vn 0.6314 0.0975 -0.7693
vn 0.0625 0.9951 -0.0761
vn 0.0625 -0.9951 -0.0761
vn 0.4918 -0.7715 -0.4036
vn 0.6825 0.4696 -0.5601
vn 0.3658 -0.8810 -0.3002
vn 0.7400 0.2890 -0.6073
vn 0.2254 -0.9565 -0.1850
vn 0.7693 0.0975 -0.6314
vn 0.0761 0.9951 -0.0625
vn 0.0761 -0.9951 -0.0625
vn 0.7693 -0.0976 -0.6314
vn 0.2254 0.9565 -0.1850
vn 0.7400 -0.2890 -0.6073
vn 0.3658 0.8810 -0.3002
vn 0.6825 -0.4696 -0.5601
vn 0.4918 0.7715 -0.4036
vn 0.5987 -0.6326 -0.4913
vn 0.5987 0.6326 -0.4913
vn 0.8443 -0.2890 -0.4513
vn 0.4173 0.8810 -0.2231
vn 0.7786 -0.4696 -0.4162
vn 0.5611 0.7715 -0.2999
vn 0.6831 -0.6326 -0.3651
vn 0.6831 0.6326 -0.3651
vn 0.5611 -0.7715 -0.2999
vn 0.7786 0.4696 -0.4162
vn 0.4173 -0.8810 -0.2230
vn 0.8443 0.2890 -0.4513
vn 0.2571 -0.9565 -0.1374
vn 0.8777 0.0976 -0.4691
vn 0.0869 0.9951 -0.0464
vn 0.0869 -0.9951 -0.0464
vn 0.8777 -0.0976 -0.4691
vn 0.2571 0.9565 -0.1374
vn 0.4528 -0.8810 -0.1374
vn 0.9161 0.2890 -0.2779
vn 0.2790 -0.9565 -0.0846
vn 0.9524 0.0976 -0.2889
vn 0.0942 0.9951 -0.0286
vn 0.0942 -0.9951 -0.0286
vn 0.9524 -0.0976 -0.2889
vn 0.2790 0.9565 -0.0846
vn 0.9161 -0.2890 -0.2779
vn 0.4528 0.8810 -0.1374
vn 0.8448 -0.4696 -0.2563
vn 0.6088 0.7715 -0.1847
vn 0.7412 -0.6326 -0.2248
vn 0.7412 0.6326 -0.2248
vn 0.6088 -0.7715 -0.1847
vn 0.8448 0.4696 -0.2563
vn 0.4709 0.8810 -0.0464
vn 0.8786 -0.4696 -0.0865
vn 0.6332 0.7715 -0.0624
vn 0.7708 -0.6326 -0.0759
vn 0.7708 0.6326 -0.0759
vn 0.6332 -0.7715 -0.0624
vn 0.8786 0.4696 -0.0865
vn 0.4709 -0.8810 -0.0464
vn 0.9527 0.2890 -0.0938
vn 0.2902 -0.9565 -0.0286
vn 0.9904 0.0975 -0.0975
vn 0.0980 0.9951 -0.0097
vn 0.0980 -0.9951 -0.0097
vn 0.9904 -0.0976 -0.0975
vn 0.2902 0.9565 -0.0286
vn 0.9527 -0.2890 -0.0938
vn 0.9527 0.2890 0.0938
vn 0.2902 -0.9565 0.0286
vn 0.9904 0.0975 0.0975
vn 0.0980 0.9951 0.0097
vn 0.0980 -0.9951 0.0097
vn 0.9904 -0.0975 0.0975
vn 0.2902 0.9565 0.0286
vn 0.9527 -0.2890 0.0938
vn 0.4709 0.8810 0.0464
vn 0.8786 -0.4696 0.0865
vn 0.6332 0.7715 0.0624
vn 0.7708 -0.6326 0.0759
vn 0.7708 0.6326 0.0759
vn 0.6332 -0.7715 0.0624
vn 0.8786 0.4696 0.0865
vn 0.4709 -0.8810 0.0464
vn 0.8448 -0.4696 0.2563
vn 0.6088 0.7715 0.1847
vn 0.7412 -0.6326 0.2248
vn 0.7412 0.6326 0.2248
vn 0.6088 -0.7715 0.1847
vn 0.8448 0.4696 0.2563
vn 0.4528 -0.8810 0.1374
vn 0.9161 0.2890 0.2779
vn 0.2790 -0.9565 0.0846
vn 0.9524 0.0976 0.2889
vn 0.0942 0.9951 0.0286
vn 0.0942 -0.9951 0.0286
vn 0.9524 -0.0976 0.2889
vn 0.2790 0.9565 0.0846
vn 0.9161 -0.2890 0.2779
vn 0.4528 0.8810 0.1374
vn 0.2571 -0.9565 0.1374
vn 0.8777 0.0976 0.4691
vn 0.0869 0.9951 0.0464
vn 0.0869 -0.9951 0.0464
vn 0.8777 -0.0976 0.4691
vn 0.2571 0.9565 0.1374
vn 0.8443 -0.2890 0.4513
vn 0.4173 0.8810 0.2231
vn 0.7786 -0.4696 0.4162
vn 0.5611 0.7715 0.2999
vn 0.6831 -0.6326 0.3651
vn 0.6831 0.6326 0.3651
vn 0.5611 -0.7715 0.2999
vn 0.7786 0.4696 0.4162
vn 0.4173 -0.8810 0.2230
vn 0.8443 0.2890 0.4513
vn 0.4918 0.7715 0.4036
vn 0.5987 -0.6326 0.4913
vn 0.5987 0.6326 0.4913
vn 0.4918 -0.7715 0.4036
vn 0.6825 0.4696 0.5601
vn 0.3658 -0.8810 0.3002
vn 0.7400 0.2890 0.6073
vn 0.2254 -0.9566 0.1850
vn 0.7693 0.0976 0.6314
vn 0.0761 0.9951 0.0625
vn 0.0761 -0.9951 0.0625
vn 0.7693 -0.0976 0.6314
vn 0.2254 0.9565 0.1850
vn 0.7400 -0.2890 0.6073
vn 0.3658 0.8810 0.3002
vn 0.6825 -0.4696 0.5601
vn 0.6314 0.0975 0.7693
vn 0.0625 0.9951 0.0761
vn 0.0625 -0.9951 0.0761
vn 0.6314 -0.0975 0.7693
vn 0.1850 0.9565 0.2254
vn 0.6073 -0.2890 0.7400
vn 0.3002 0.8810 0.3658
vn 0.5601 -0.4696 0.6825
vn 0.4036 0.7715 0.4918
vn 0.4913 -0.6326 0.5987
vn 0.4913 0.6326 0.5987
vn 0.4036 -0.7715 0.4918
vn 0.5601 0.4696 0.6825
vn 0.3002 -0.8810 0.3658
vn 0.6073 0.2890 0.7400
vn 0.1850 -0.9565 0.2254
vn 0.3651 -0.6326 0.6831
vn 0.3651 0.6326 0.6831
vn 0.2999 -0.7715 0.5611
vn 0.4162 0.4696 0.7786
vn 0.2230 -0.8810 0.4173
vn 0.4513 0.2890 0.8443
vn 0.1374 -0.9565 0.2571
vn 0.4691 0.0975 0.8777
vn 0.0464 0.9951 0.0869
vn 0.0464 -0.9951 0.0869
vn 0.4691 -0.0975 0.8777
vn 0.1374 0.9565 0.2571
vn 0.4513 -0.2890 0.8443
vn 0.2231 0.8810 0.4173
vn 0.4162 -0.4696 0.7786
vn 0.2999 0.7715 0.5611
vn 0.0286 -0.9951 0.0942
vn 0.2889 -0.0975 0.9524
vn 0.0846 0.9565 0.2790
vn 0.2779 -0.2890 0.9161
vn 0.1374 0.8810 0.4528
vn 0.2563 -0.4696 0.8448
vn 0.1847 0.7715 0.6088
vn 0.2248 -0.6326 0.7412
vn 0.2248 0.6326 0.7412
vn 0.1847 -0.7715 0.6088
vn 0.2563 0.4696 0.8448
vn 0.1374 -0.8810 0.4528
vn 0.2779 0.2890 0.9161
vn 0.0846 -0.9565 0.2790
vn 0.2889 0.0975 0.9524
vn 0.0286 0.9951 0.0942
vn 0.0624 -0.7715 0.6332
vn 0.0865 0.4696 0.8786
vn 0.0464 -0.8810 0.4709
vn 0.0938 0.2890 0.9527
vn 0.0286 -0.9565 0.2902
vn 0.0976 0.0976 0.9904
vn 0.0097 0.9951 0.0980
vn 0.0097 -0.9951 0.0980
vn 0.0975 -0.0975 0.9904
vn 0.0286 0.9565 0.2902
vn 0.0938 -0.2890 0.9527
vn 0.0464 0.8810 0.4709
vn 0.0865 -0.4696 0.8786
vn 0.0624 0.7715 0.6332
vn 0.0759 -0.6326 0.7708
vn 0.0759 0.6326 0.7708
vn -0.0286 0.9565 0.2902
vn -0.0938 -0.2890 0.9527
vn -0.0464 0.8810 0.4709
vn -0.0865 -0.4696 0.8786
vn -0.0624 0.7715 0.6332
vn -0.0759 -0.6326 0.7708
vn -0.0759 0.6326 0.7708
vn -0.0624 -0.7715 0.6332
vn -0.0865 0.4696 0.8786
vn -0.0464 -0.8810 0.4709
vn -0.0938 0.2890 0.9527
vn -0.0286 -0.9565 0.2902
vn -0.0976 0.0975 0.9904
vn -0.0097 0.9951 0.0980
vn -0.0097 -0.9951 0.0980
vn -0.0976 -0.0975 0.9904
vn -0.2563 0.4696 0.8448
vn -0.1374 -0.8810 0.4528
vn -0.2779 0.2890 0.9161
vn -0.0846 -0.9565 0.2790
vn -0.2889 0.0975 0.9524
vn -0.0286 0.9951 0.0942
vn -0.0286 -0.9951 0.0942
vn -0.2889 -0.0975 0.9524
vn -0.0846 0.9565 0.2790
vn -0.2779 -0.2890 0.9161
vn -0.1374 0.8810 0.4528
vn -0.2563 -0.4696 0.8448
vn -0.1847 0.7715 0.6088
vn -0.2248 -0.6326 0.7412
vn -0.2248 0.6326 0.7412
vn -0.1847 -0.7715 0.6088
vn -0.4513 -0.2890 0.8443
vn -0.2231 0.8810 0.4173
vn -0.4162 -0.4696 0.7786
vn -0.2999 0.7715 0.5611
vn -0.3651 -0.6326 0.6831
vn -0.3651 0.6326 0.6831
vn -0.2999 -0.7715 0.5611
vn -0.4162 0.4696 0.7786
vn -0.2230 -0.8810 0.4173
vn -0.4513 0.2890 0.8443
vn -0.1374 -0.9565 0.2571
vn -0.4691 0.0975 0.8777
vn -0.0464 0.9951 0.0869
vn -0.0464 -0.9951 0.0869
vn -0.4691 -0.0975 0.8777
vn -0.1374 0.9565 0.2571
vn -0.3002 -0.8810 0.3658
vn -0.6073 0.2890 0.7400
vn -0.1850 -0.9565 0.2254
vn -0.6314 0.0975 0.7693
vn -0.0625 0.9951 0.0761
vn -0.0625 -0.9951 0.0761
vn -0.6314 -0.0975 0.7693
vn -0.1850 0.9565 0.2254
vn -0.6073 -0.2890 0.7400
vn -0.3002 0.8810 0.3658
vn -0.5601 -0.4696 0.6825
vn -0.4036 0.7715 0.4918
vn -0.4913 -0.6326 0.5987
vn -0.4913 0.6326 0.5987
vn -0.4036 -0.7715 0.4918
vn -0.5601 0.4696 0.6825
vn -0.3658 0.8810 0.3002
vn -0.6825 -0.4696 0.5601
vn -0.4918 0.7715 0.4036
vn -0.5987 -0.6326 0.4913
vn -0.5987 0.6326 0.4913
vn -0.4918 -0.7715 0.4036
vn -0.6825 0.4696 0.5601
vn -0.3658 -0.8810 0.3002
vn -0.7400 0.2890 0.6073
vn -0.2254 -0.9566 0.1850
vn -0.7693 0.0976 0.6314
vn -0.0761 0.9951 0.0625
vn -0.0761 -0.9951 0.0625
vn -0.7693 -0.0976 0.6314
vn -0.2254 0.9565 0.1850
vn -0.7400 -0.2890 0.6073
vn -0.8443 0.2890 0.4513
vn -0.2571 -0.9565 0.1374
vn -0.8777 0.0975 0.4691
vn -0.0869 0.9951 0.0464
vn -0.0869 -0.9951 0.0464
vn -0.8777 -0.0976 0.4691
vn -0.2571 0.9566 0.1374
vn -0.8443 -0.2890 0.4513
vn -0.4173 0.8810 0.2231
vn -0.7786 -0.4696 0.4162
vn -0.5611 0.7715 0.2999
vn -0.6831 -0.6326 0.3651
vn -0.6831 0.6326 0.3651
vn -0.5611 -0.7715 0.2999
vn -0.7786 0.4696 0.4162
vn -0.4173 -0.8810 0.2231
vn -0.8448 -0.4696 0.2563
vn -0.6088 0.7715 0.1847
vn -0.7412 -0.6326 0.2248
vn -0.7412 0.6326 0.2248
vn -0.6088 -0.7715 0.1847
vn -0.8448 0.4696 0.2563
vn -0.4528 -0.8810 0.1374
vn -0.9161 0.2890 0.2779
vn -0.2790 -0.9566 0.0846
vn -0.9524 0.0975 0.2889
vn -0.0942 0.9951 0.0286
vn -0.0942 -0.9951 0.0286
vn -0.9524 -0.0975 0.2889
vn -0.2790 0.9565 0.0846
vn -0.9161 -0.2890 0.2779
vn -0.4528 0.8810 0.1374
vn -0.2902 -0.9565 0.0286
vn -0.9904 0.0976 0.0975
vn -0.0980 0.9951 0.0096
vn -0.0980 -0.9951 0.0097
vn -0.9904 -0.0976 0.0976
vn -0.2902 0.9565 0.0286
vn -0.9527 -0.2890 0.0938
vn -0.4709 0.8810 0.0464
vn -0.8786 -0.4696 0.0865
vn -0.6332 0.7715 0.0624
vn -0.7708 -0.6326 0.0759
vn -0.7708 0.6326 0.0759
vn -0.6332 -0.7715 0.0624
vn -0.8786 0.4696 0.0865
vn -0.4709 -0.8810 0.0464
vn -0.9527 0.2890 0.0938
vn -0.7708 -0.6326 -0.0759
vn -0.7708 0.6326 -0.0759
vn -0.6332 -0.7715 -0.0624
vn -0.8786 0.4696 -0.0865
vn -0.4709 -0.8810 -0.0464
vn -0.9527 0.2890 -0.0938
vn -0.2902 -0.9565 -0.0286
vn -0.9904 0.0975 -0.0975
vn -0.0980 0.9951 -0.0096
vn -0.0980 -0.9951 -0.0097
vn -0.9904 -0.0975 -0.0975
vn -0.2902 0.9565 -0.0286
vn -0.9527 -0.2890 -0.0938
vn -0.4709 0.8810 -0.0464
vn -0.8786 -0.4696 -0.0865
vn -0.6332 0.7715 -0.0624
vn -0.0942 0.9951 -0.0286
vn -0.0942 -0.9951 -0.0286
vn -0.9524 -0.0975 -0.2889
vn -0.2790 0.9565 -0.0846
vn -0.9161 -0.2890 -0.2779
vn -0.4528 0.8810 -0.1374
vn -0.8448 -0.4696 -0.2563
vn -0.6088 0.7715 -0.1847
vn -0.7412 -0.6326 -0.2248
vn -0.7412 0.6326 -0.2248
vn -0.6088 -0.7715 -0.1847
vn -0.8448 0.4696 -0.2563
vn -0.4528 -0.8810 -0.1374
vn -0.9161 0.2890 -0.2779
vn -0.2790 -0.9565 -0.0846
vn -0.9524 0.0975 -0.2889
vn -0.6831 0.6326 -0.3651
vn -0.5611 -0.7715 -0.2999
vn -0.7786 0.4696 -0.4162
vn -0.4173 -0.8810 -0.2230
vn -0.8443 0.2890 -0.4513
vn -0.2571 -0.9565 -0.1374
vn -0.8777 0.0975 -0.4691
vn -0.0869 0.9951 -0.0464
vn -0.0869 -0.9951 -0.0464
vn -0.8777 -0.0975 -0.4691
vn -0.2571 0.9565 -0.1374
vn -0.8443 -0.2890 -0.4513
vn -0.4173 0.8810 -0.2230
vn -0.7786 -0.4696 -0.4162
vn -0.5611 0.7715 -0.2999
vn -0.6831 -0.6326 -0.3651
vn -0.7693 -0.0975 -0.6314
vn -0.2254 0.9565 -0.1850
vn -0.7400 -0.2890 -0.6073
vn -0.3658 0.8810 -0.3002
vn -0.6825 -0.4696 -0.5601
vn -0.4918 0.7715 -0.4036
vn -0.5987 -0.6326 -0.4913
vn -0.5987 0.6326 -0.4913
vn -0.4918 -0.7715 -0.4036
vn -0.6825 0.4696 -0.5601
vn -0.3658 -0.8810 -0.3002
vn -0.7400 0.2890 -0.6073
vn -0.2254 -0.9565 -0.1850
vn -0.7693 0.0975 -0.6314
vn -0.0761 0.9951 -0.0625
vn -0.0761 -0.9951 -0.0625
vn -0.4036 -0.7715 -0.4918
vn -0.5601 0.4696 -0.6825
vn -0.3002 -0.8810 -0.3658
vn -0.6073 0.2890 -0.7400
vn -0.1850 -0.9565 -0.2254
vn -0.6314 0.0975 -0.7693
vn -0.0625 0.9951 -0.0761
vn -0.0625 -0.9951 -0.0761
vn -0.6314 -0.0975 -0.7693
vn -0.1850 0.9565 -0.2254
vn -0.6073 -0.2890 -0.7400
vn -0.3002 0.8810 -0.3658
vn -0.5601 -0.4696 -0.6825
vn -0.4036 0.7715 -0.4918
vn -0.4913 -0.6326 -0.5987
vn -0.4913 0.6326 -0.5987
vn -0.1374 0.9565 -0.2571
vn -0.4513 -0.2890 -0.8443
vn -0.2230 0.8810 -0.4173
vn -0.4162 -0.4696 -0.7786
vn -0.2999 0.7715 -0.5611
vn -0.3651 -0.6326 -0.6831
vn -0.3651 0.6326 -0.6831
vn -0.2999 -0.7715 -0.5611
vn -0.4162 0.4696 -0.7786
vn -0.2230 -0.8810 -0.4173
vn -0.4513 0.2890 -0.8443
vn -0.1374 -0.9565 -0.2571
vn -0.4691 0.0975 -0.8777
vn -0.0464 0.9951 -0.0869
vn -0.0464 -0.9951 -0.0869
vn -0.4691 -0.0975 -0.8777
vn -0.2563 0.4696 -0.8448
vn -0.1374 -0.8810 -0.4528
vn -0.2779 0.2890 -0.9161
vn -0.0846 -0.9565 -0.2790
vn -0.2889 0.0975 -0.9524
vn -0.0286 0.9951 -0.0942
vn -0.0286 -0.9951 -0.0942
vn -0.2889 -0.0975 -0.9524
vn -0.0846 0.9565 -0.2790
vn -0.2779 -0.2890 -0.9161
vn -0.1374 0.8810 -0.4528
vn -0.2563 -0.4696 -0.8448
vn -0.1847 0.7715 -0.6088
vn -0.2248 -0.6326 -0.7412
vn -0.2248 0.6326 -0.7412
vn -0.1847 -0.7715 -0.6088
vn -0.0938 -0.2890 -0.9527
vn -0.0464 0.8810 -0.4709
vn -0.0865 -0.4696 -0.8786
vn -0.0624 0.7715 -0.6332
vn -0.0759 -0.6326 -0.7708
vn -0.0759 0.6326 -0.7708
vn -0.0624 -0.7715 -0.6332
vn -0.0865 0.4696 -0.8786
vn -0.0464 -0.8810 -0.4709
vn -0.0938 0.2890 -0.9527
vn -0.0286 -0.9565 -0.2902
vn -0.0975 0.0975 -0.9904
vn -0.0097 0.9951 -0.0980
vn -0.0097 -0.9951 -0.0980
vn -0.0975 -0.0975 -0.9904
vn -0.0286 0.9565 -0.2902
vn 0.7071 0.0000 0.7071
vn 0.7071 0.0000 -0.7071
vn -0.7071 0.0000 -0.7071
vn -0.7071 0.0000 0.7071
usemtl ProBuilderDefault
s off
f 1/1/1 2/2/1 3/3/1 4/4/1
f 4/4/2 3/3/2 5/5/2 6/6/2
f 6/6/3 5/5/3 7/7/3 8/8/3
f 8/8/4 7/7/4 9/9/4 10/10/4
f 10/11/5 9/12/5 11/13/5 12/14/5
f 12/14/6 11/13/6 13/15/6 14/16/6
f 14/16/7 13/15/7 15/17/7 16/18/7
f 16/18/8 15/17/8 17/19/8 18/20/8
f 18/20/9 17/19/9 19/21/9 20/22/9
f 20/22/10 19/21/10 21/23/10 22/24/10
f 22/24/11 21/23/11 23/25/11 24/26/11
f 24/26/12 23/25/12 25/27/12 26/28/12
f 26/29/13 25/30/13 27/31/13 28/32/13
f 28/32/14 27/31/14 29/33/14 30/34/14
f 30/34/15 29/33/15 31/35/15 32/36/15
f 32/36/16 31/35/16 33/37/16 34/38/16
f 34/38/17 33/37/17 35/39/17 36/40/17
f 36/40/18 35/39/18 37/41/18 38/42/18
f 38/42/19 37/41/19 39/43/19 40/44/19
f 40/44/20 39/43/20 41/45/20 42/46/20
f 42/47/21 41/48/21 43/49/21 44/50/21
f 44/50/22 43/49/22 45/51/22 46/52/22
f 46/52/23 45/51/23 47/53/23 48/54/23
f 48/54/24 47/53/24 49/55/24 50/56/24
f 50/56/25 49/55/25 51/57/25 52/58/25
f 52/58/26 51/57/26 53/59/26 54/60/26
f 54/60/27 53/59/27 55/61/27 56/62/27
f 56/62/28 55/61/28 57/63/28 58/64/28
f 58/65/29 57/66/29 59/67/29 60/68/29
f 60/68/30 59/67/30 61/69/30 62/70/30
f 3/71/31 2/72/31 63/73/31 61/74/31 59/75/31 57/76/31 55/77/31 53/78/31 51/79/31 49/80/31 47/81/31 45/82/31 43/83/31 41/84/31 39/85/31 37/86/31 35/87/31 33/88/31 31/89/31 29/90/31 27/91/31 25/92/31 23/93/31 21/94/31 19/95/31 17/96/31 15/97/31 13/98/31 11/99/31 9/100/31 7/101/31 5/102/31
f 62/70/32 61/69/32 63/103/32 64/104/32
f 64/104/33 63/103/33 2/2/33 1/1/33
f 1/105/34 4/106/34 6/107/34 8/108/34 10/109/34 12/110/34 14/111/34 16/112/34 18/113/34 20/114/34 22/115/34 24/116/34 26/117/34 28/118/34 30/119/34 32/120/34 34/121/34 36/122/34 38/123/34 40/124/34 42/125/34 44/126/34 46/127/34 48/128/34 50/129/34 52/130/34 54/131/34 56/132/34 58/133/34 60/134/34 62/135/34 64/136/34
s 1
f 65/137/35 66/138/35 67/139/35 68/140/35
f 68/141/36 69/142/36 70/143/36 65/144/36
f 71/145/37 67/146/37 66/147/37 72/148/37
f 69/142/38 73/149/38 74/150/38 70/143/38
f 75/151/39 71/145/39 72/148/39 76/152/39
f 73/149/40 77/153/40 78/154/40 74/150/40
f 79/155/41 75/151/41 76/152/41 80/156/41
f 77/153/42 81/157/42 82/158/42 78/154/42
f 83/159/43 79/155/43 80/156/43 84/160/43
f 81/161/44 85/162/44 86/163/44 82/164/44
f 87/165/45 83/166/45 84/167/45 88/168/45
f 85/162/46 89/169/46 90/170/46 86/163/46
f 91/171/47 87/165/47 88/168/47 92/172/47
f 89/169/48 93/173/48 94/174/48 90/170/48
f 95/175/49 91/171/49 92/172/49 96/176/49
f 93/173/50 97/177/50 98/178/50 94/174/50
f 99/179/51 95/175/51 96/176/51 100/180/51
f 100/180/35 98/181/35 97/182/35 99/179/35
f 101/183/52 102/184/52 103/185/52 104/186/52
f 72/187/53 66/188/53 65/189/53 70/190/53
f 71/191/52 75/192/52 73/193/52 69/194/52
f 76/195/53 72/187/53 70/190/53 74/196/53
f 75/192/52 79/197/52 77/198/52 73/193/52
f 80/199/53 76/195/53 74/196/53 78/200/53
f 79/197/52 83/201/52 81/202/52 77/198/52
f 84/203/53 80/199/53 78/200/53 82/204/53
f 83/201/52 87/205/52 85/206/52 81/202/52
f 88/207/53 84/203/53 82/204/53 86/208/53
f 87/205/52 91/209/52 89/210/52 85/206/52
f 105/211/53 106/212/53 107/213/53 108/214/53
f 91/209/52 95/215/52 93/216/52 89/210/52
f 96/217/53 92/218/53 90/219/53 94/220/53
f 95/215/52 99/221/52 97/222/52 93/216/52
f 100/223/53 96/217/53 94/220/53 98/224/53
f 108/225/46 107/226/46 86/163/46 90/170/46
f 105/227/34 108/228/34 90/229/34 92/230/34
f 107/231/54 106/232/54 88/233/54 86/234/54
f 106/235/47 105/236/47 92/172/47 88/168/47
f 104/237/36 103/238/36 69/142/36 68/141/36
f 101/239/35 104/240/35 68/140/35 67/139/35
f 103/241/55 102/242/55 71/243/55 69/244/55
f 102/245/37 101/246/37 67/146/37 71/145/37
f 109/247/31 110/248/31 111/249/31 112/250/31
f 110/248/31 113/251/31 114/252/31 111/249/31
f 113/251/31 115/253/31 116/254/31 114/252/31
f 115/253/31 117/255/31 118/256/31 116/254/31
f 117/255/31 119/257/31 120/258/31 118/256/31
f 119/257/31 121/259/31 122/260/31 120/258/31
f 123/261/31 124/262/31 110/248/31 109/247/31
f 124/262/31 125/263/31 113/251/31 110/248/31
f 125/263/31 126/264/31 115/253/31 113/251/31
f 126/264/31 127/265/31 117/255/31 115/253/31
f 127/265/31 128/266/31 119/257/31 117/255/31
f 128/266/31 129/267/31 121/259/31 119/257/31
f 130/268/31 131/269/31 124/262/31 123/261/31
f 131/269/31 132/270/31 125/263/31 124/262/31
f 132/270/31 133/271/31 126/264/31 125/263/31
f 133/271/31 134/272/31 127/265/31 126/264/31
f 134/272/31 135/273/31 128/266/31 127/265/31
f 135/273/31 136/274/31 129/267/31 128/266/31
f 137/275/31 138/276/31 131/269/31 130/268/31
f 139/277/31 140/278/31 141/279/31 142/280/31
f 143/281/31 144/282/31 133/271/31 132/270/31
f 144/282/31 145/283/31 134/272/31 133/271/31
f 145/283/31 146/284/31 135/273/31 134/272/31
f 146/284/31 147/285/31 136/274/31 135/273/31
f 148/286/31 149/287/31 138/276/31 137/275/31
f 149/287/31 150/288/31 143/281/31 138/276/31
f 150/288/31 151/289/31 144/282/31 143/281/31
f 151/289/31 152/290/31 145/283/31 144/282/31
f 152/290/31 153/291/31 146/284/31 145/283/31
f 153/291/31 154/292/31 147/285/31 146/284/31
f 155/293/31 156/294/31 149/287/31 148/286/31
f 156/294/31 157/295/31 150/288/31 149/287/31
f 157/295/31 158/296/31 151/289/31 150/288/31
f 158/296/31 159/297/31 152/290/31 151/289/31
f 159/297/31 160/298/31 153/291/31 152/290/31
f 160/298/31 161/299/31 154/292/31 153/291/31
f 162/300/56 163/301/56 132/302/56 131/303/56
f 164/304/53 162/305/53 131/306/53 138/307/53
f 163/308/52 165/309/52 143/310/52 132/311/52
f 165/312/57 164/313/57 138/314/57 143/315/57
f 166/316/56 167/317/56 168/318/56 169/319/56
f 139/320/53 142/321/53 162/305/53 164/304/53
f 141/322/52 140/323/52 165/309/52 163/308/52
f 140/324/57 139/325/57 164/313/57 165/312/57
f 169/326/34 168/327/34 163/328/34 162/329/34
f 166/330/53 169/331/53 162/305/53 142/321/53
f 168/332/52 167/333/52 141/322/52 163/308/52
f 167/334/31 166/335/31 142/280/31 141/279/31
f 170/336/58 171/337/58 172/338/58 173/339/58
f 174/340/59 175/341/59 176/342/59 177/343/59
f 178/344/60 170/336/60 173/339/60 179/345/60
f 180/346/61 174/340/61 177/343/61 181/347/61
f 182/348/62 178/344/62 179/345/62 183/349/62
f 184/350/63 180/351/63 181/352/63 185/353/63
f 186/354/64 182/355/64 183/356/64 187/357/64
f 188/358/65 184/350/65 185/353/65 189/359/65
f 190/360/66 186/354/66 187/357/66 191/361/66
f 192/362/67 188/358/67 189/359/67 193/363/67
f 194/364/68 190/360/68 191/361/68 195/365/68
f 196/366/69 192/362/69 193/363/69 197/367/69
f 198/368/70 199/369/70 200/370/70
f 201/371/71 194/364/71 195/365/71
f 171/337/72 196/366/72 197/367/72 172/338/72
f 175/341/73 198/368/73 200/370/73 176/342/73
f 200/370/74 199/369/74 202/372/74
f 201/371/75 195/365/75 203/373/75
f 172/338/76 197/367/76 204/374/76 205/375/76
f 176/342/77 200/370/77 202/372/77 206/376/77
f 173/339/78 172/338/78 205/375/78 207/377/78
f 177/343/79 176/342/79 206/376/79 208/378/79
f 179/345/80 173/339/80 207/377/80 209/379/80
f 181/347/81 177/343/81 208/378/81 210/380/81
f 183/349/82 179/345/82 209/379/82 211/381/82
f 185/353/83 181/352/83 210/382/83 212/383/83
f 187/357/84 183/356/84 211/384/84 213/385/84
f 189/359/85 185/353/85 212/383/85 214/386/85
f 191/361/86 187/357/86 213/385/86 215/387/86
f 193/363/87 189/359/87 214/386/87 216/388/87
f 195/365/88 191/361/88 215/387/88 203/373/88
f 197/367/89 193/363/89 216/388/89 204/374/89
f 212/383/90 210/382/90 217/389/90 218/390/90
f 213/385/91 211/384/91 219/391/91 220/392/91
f 214/386/92 212/383/92 218/390/92 221/393/92
f 215/387/93 213/385/93 220/392/93 222/394/93
f 216/388/94 214/386/94 221/393/94 223/395/94
f 203/373/95 215/387/95 222/394/95 224/396/95
f 204/374/96 216/388/96 223/395/96 225/397/96
f 202/372/97 199/369/97 226/398/97
f 201/371/98 203/373/98 224/396/98
f 205/375/99 204/374/99 225/397/99 227/399/99
f 206/376/100 202/372/100 226/398/100 228/400/100
f 207/377/101 205/375/101 227/399/101 229/401/101
f 208/378/102 206/376/102 228/400/102 230/402/102
f 209/379/103 207/377/103 229/401/103 231/403/103
f 210/380/104 208/378/104 230/402/104 217/404/104
f 211/381/105 209/379/105 231/403/105 219/405/105
f 227/399/106 225/397/106 232/406/106 233/407/106
f 228/400/107 226/398/107 234/408/107 235/409/107
f 229/401/108 227/399/108 233/407/108 236/410/108
f 230/402/109 228/400/109 235/409/109 237/411/109
f 231/403/110 229/401/110 236/410/110 238/412/110
f 217/404/111 230/402/111 237/411/111 239/413/111
f 219/391/112 231/414/112 238/415/112 240/416/112
f 218/417/113 217/404/113 239/413/113 241/418/113
f 220/392/114 219/391/114 240/416/114 242/419/114
f 221/393/115 218/390/115 241/420/115 243/421/115
f 222/394/116 220/392/116 242/419/116 244/422/116
f 223/395/117 221/393/117 243/421/117 245/423/117
f 224/396/118 222/394/118 244/422/118 246/424/118
f 225/397/119 223/395/119 245/423/119 232/406/119
f 226/398/120 199/369/120 234/408/120
f 201/371/121 224/396/121 246/424/121
f 242/419/122 240/416/122 247/425/122 248/426/122
f 243/427/123 241/428/123 249/429/123 250/430/123
f 244/422/124 242/419/124 248/426/124 251/431/124
f 245/432/125 243/427/125 250/430/125 252/433/125
f 246/424/126 244/422/126 251/431/126 253/434/126
f 232/435/127 245/432/127 252/433/127 254/436/127
f 234/408/128 199/369/128 255/437/128
f 201/371/129 246/424/129 253/434/129
f 233/438/130 232/435/130 254/436/130 256/439/130
f 235/409/131 234/408/131 255/437/131 257/440/131
f 236/441/132 233/438/132 256/439/132 258/442/132
f 237/411/133 235/409/133 257/440/133 259/443/133
f 238/444/134 236/441/134 258/442/134 260/445/134
f 239/413/135 237/411/135 259/443/135 261/446/135
f 240/416/136 238/415/136 260/447/136 247/425/136
f 241/418/137 239/413/137 261/446/137 249/448/137
f 258/442/138 256/439/138 262/449/138 263/450/138
f 259/443/139 257/440/139 264/451/139 265/452/139
f 260/445/140 258/442/140 263/450/140 266/453/140
f 261/446/141 259/443/141 265/452/141 267/454/141
f 247/455/142 260/445/142 266/453/142 268/456/142
f 249/429/143 261/457/143 267/458/143 269/459/143
f 248/426/144 247/425/144 268/460/144 270/461/144
f 250/430/145 249/429/145 269/459/145 271/462/145
f 251/431/146 248/426/146 270/461/146 272/463/146
f 252/433/147 250/430/147 271/462/147 273/464/147
f 253/434/148 251/431/148 272/463/148 274/465/148
f 254/436/149 252/433/149 273/464/149 275/466/149
f 255/437/150 199/369/150 276/467/150
f 201/371/151 253/434/151 274/465/151
f 256/439/152 254/436/152 275/466/152 262/449/152
f 257/440/153 255/437/153 276/467/153 264/451/153
f 272/463/154 270/461/154 277/468/154 278/469/154
f 273/464/155 271/462/155 279/470/155 280/471/155
f 274/465/156 272/463/156 278/469/156 281/472/156
f 275/466/157 273/464/157 280/471/157 282/473/157
f 276/467/158 199/369/158 283/474/158
f 201/371/159 274/465/159 281/472/159
f 262/449/160 275/466/160 282/473/160 284/475/160
f 264/451/161 276/467/161 283/474/161 285/476/161
f 263/450/162 262/449/162 284/475/162 286/477/162
f 265/452/163 264/451/163 285/476/163 287/478/163
f 266/453/164 263/450/164 286/477/164 288/479/164
f 267/454/165 265/452/165 287/478/165 289/480/165
f 268/456/166 266/453/166 288/479/166 290/481/166
f 269/459/167 267/458/167 289/482/167 291/483/167
f 270/461/168 268/460/168 290/484/168 277/468/168
f 271/462/169 269/459/169 291/483/169 279/470/169
f 287/478/170 285/476/170 292/485/170 293/486/170
f 288/479/171 286/477/171 294/487/171 295/488/171
f 289/480/172 287/478/172 293/486/172 296/489/172
f 290/481/173 288/479/173 295/488/173 297/490/173
f 291/483/174 289/482/174 296/491/174 298/492/174
f 277/468/175 290/484/175 297/493/175 299/494/175
f 279/470/176 291/483/176 298/492/176 300/495/176
f 278/469/177 277/468/177 299/494/177 301/496/177
f 280/471/178 279/470/178 300/495/178 302/497/178
f 281/472/179 278/469/179 301/496/179 303/498/179
f 282/473/180 280/471/180 302/497/180 304/499/180
f 283/474/181 199/369/181 305/500/181
f 201/371/182 281/472/182 303/498/182
f 284/475/183 282/473/183 304/499/183 306/501/183
f 285/476/184 283/474/184 305/500/184 292/485/184
f 286/477/185 284/475/185 306/501/185 294/487/185
f 302/497/186 300/495/186 307/502/186 308/503/186
f 303/498/187 301/496/187 309/504/187 310/505/187
f 304/499/188 302/497/188 308/503/188 311/506/188
f 305/500/189 199/369/189 312/507/189
f 201/371/190 303/498/190 310/505/190
f 306/501/191 304/499/191 311/506/191 313/508/191
f 292/485/192 305/500/192 312/507/192 314/509/192
f 294/487/193 306/501/193 313/508/193 315/510/193
f 293/486/194 292/485/194 314/509/194 316/511/194
f 295/488/195 294/487/195 315/510/195 317/512/195
f 296/489/196 293/486/196 316/511/196 318/513/196
f 297/490/197 295/488/197 317/512/197 319/514/197
f 298/492/198 296/491/198 318/515/198 320/516/198
f 299/494/199 297/493/199 319/517/199 321/518/199
f 300/495/200 298/492/200 320/516/200 307/502/200
f 301/496/201 299/494/201 321/518/201 309/504/201
f 317/512/202 315/510/202 322/519/202 323/520/202
f 318/513/203 316/511/203 324/521/203 325/522/203
f 319/514/204 317/512/204 323/520/204 326/523/204
f 320/516/205 318/515/205 325/524/205 327/525/205
f 321/518/206 319/517/206 326/526/206 328/527/206
f 307/502/207 320/516/207 327/525/207 329/528/207
f 309/504/208 321/518/208 328/527/208 330/529/208
f 308/503/209 307/502/209 329/528/209 331/530/209
f 310/505/210 309/504/210 330/529/210 332/531/210
f 311/506/211 308/503/211 331/530/211 333/532/211
f 312/507/212 199/369/212 334/533/212
f 201/371/213 310/505/213 332/531/213
f 313/508/214 311/506/214 333/532/214 335/534/214
f 314/509/215 312/507/215 334/533/215 336/535/215
f 315/510/216 313/508/216 335/534/216 322/519/216
f 316/511/217 314/509/217 336/535/217 324/521/217
f 332/531/218 330/529/218 337/536/218 338/537/218
f 333/532/219 331/530/219 339/538/219 340/539/219
f 334/533/220 199/369/220 341/540/220
f 201/371/221 332/531/221 338/537/221
f 335/534/222 333/532/222 340/539/222 342/541/222
f 336/535/223 334/533/223 341/540/223 343/542/223
f 322/519/224 335/534/224 342/541/224 344/543/224
f 324/521/225 336/535/225 343/542/225 345/544/225
f 323/520/226 322/519/226 344/543/226 346/545/226
f 325/522/227 324/521/227 345/544/227 347/546/227
f 326/523/228 323/520/228 346/545/228 348/547/228
f 327/525/229 325/524/229 347/548/229 349/549/229
f 328/527/230 326/526/230 348/550/230 350/551/230
f 329/528/231 327/525/231 349/549/231 351/552/231
f 330/529/232 328/527/232 350/551/232 337/536/232
f 331/530/233 329/528/233 351/552/233 339/538/233
f 347/546/234 345/544/234 352/553/234 353/554/234
f 348/550/235 346/555/235 354/556/235 355/557/235
f 349/558/236 347/546/236 353/554/236 356/559/236
f 350/551/237 348/550/237 355/557/237 357/560/237
f 351/552/238 349/549/238 356/561/238 358/562/238
f 337/536/239 350/551/239 357/560/239 359/563/239
f 339/538/240 351/552/240 358/562/240 360/564/240
f 338/537/241 337/536/241 359/563/241 361/565/241
f 340/539/242 339/538/242 360/564/242 362/566/242
f 341/540/243 199/369/243 363/567/243
f 201/371/244 338/537/244 361/565/244
f 342/541/245 340/539/245 362/566/245 364/568/245
f 343/542/246 341/540/246 363/567/246 365/569/246
f 344/543/247 342/541/247 364/568/247 366/570/247
f 345/544/248 343/542/248 365/569/248 352/553/248
f 346/545/249 344/543/249 366/570/249 354/571/249
f 362/572/250 360/573/250 367/574/250 368/575/250
f 363/567/251 199/369/251 369/576/251
f 201/371/252 361/565/252 370/577/252
f 364/578/253 362/572/253 368/575/253 371/579/253
f 365/569/254 363/567/254 369/576/254 372/580/254
f 366/581/255 364/578/255 371/579/255 373/582/255
f 352/553/256 365/569/256 372/580/256 374/583/256
f 354/584/257 366/581/257 373/582/257 375/585/257
f 353/554/258 352/553/258 374/583/258 376/586/258
f 355/557/259 354/556/259 375/587/259 377/588/259
f 356/559/260 353/554/260 376/586/260 378/589/260
f 357/560/261 355/557/261 377/588/261 379/590/261
f 358/591/262 356/592/262 378/593/262 380/594/262
f 359/563/263 357/560/263 379/590/263 381/595/263
f 360/573/264 358/591/264 380/594/264 367/574/264
f 361/565/265 359/563/265 381/595/265 370/577/265
f 377/596/266 375/585/266 382/597/266 383/598/266
f 378/593/267 376/599/267 384/600/267 385/601/267
f 379/590/268 377/588/268 383/602/268 386/603/268
f 380/594/269 378/593/269 385/601/269 387/604/269
f 381/595/270 379/590/270 386/603/270 388/605/270
f 367/574/271 380/594/271 387/604/271 389/606/271
f 370/577/272 381/595/272 388/605/272 390/607/272
f 368/575/273 367/574/273 389/606/273 391/608/273
f 369/576/274 199/369/274 392/609/274
f 201/371/275 370/577/275 390/607/275
f 371/579/276 368/575/276 391/608/276 393/610/276
f 372/580/277 369/576/277 392/609/277 394/611/277
f 373/582/278 371/579/278 393/610/278 395/612/278
f 374/583/279 372/580/279 394/611/279 396/613/279
f 375/585/280 373/582/280 395/612/280 382/597/280
f 376/586/281 374/583/281 396/613/281 384/614/281
f 201/371/282 390/607/282 397/615/282
f 393/610/283 391/608/283 398/616/283 399/617/283
f 394/611/284 392/609/284 400/618/284 401/619/284
f 395/612/285 393/610/285 399/617/285 402/620/285
f 396/613/286 394/611/286 401/619/286 403/621/286
f 382/597/287 395/612/287 402/620/287 404/622/287
f 384/614/288 396/613/288 403/621/288 405/623/288
f 383/598/289 382/597/289 404/622/289 406/624/289
f 385/601/290 384/600/290 405/625/290 407/626/290
f 386/603/291 383/602/291 406/627/291 408/628/291
f 387/604/292 385/601/292 407/626/292 409/629/292
f 388/605/293 386/603/293 408/628/293 410/630/293
f 389/606/294 387/604/294 409/629/294 411/631/294
f 390/607/295 388/605/295 410/630/295 397/615/295
f 391/608/296 389/606/296 411/631/296 398/616/296
f 392/609/297 199/369/297 400/618/297
f 408/628/298 406/627/298 412/632/298 413/633/298
f 409/629/299 407/626/299 414/634/299 415/635/299
f 410/630/300 408/628/300 413/633/300 416/636/300
f 411/631/301 409/629/301 415/635/301 417/637/301
f 397/615/302 410/630/302 416/636/302 418/638/302
f 398/616/303 411/631/303 417/637/303 419/639/303
f 400/618/304 199/369/304 420/640/304
f 201/371/305 397/615/305 418/638/305
f 399/617/306 398/616/306 419/639/306 421/641/306
f 401/619/307 400/618/307 420/640/307 422/642/307
f 402/620/308 399/617/308 421/641/308 423/643/308
f 403/621/309 401/619/309 422/642/309 424/644/309
f 404/622/310 402/620/310 423/643/310 425/645/310
f 405/623/311 403/621/311 424/644/311 426/646/311
f 406/624/312 404/622/312 425/645/312 412/647/312
f 407/626/313 405/625/313 426/648/313 414/634/313
f 422/642/314 420/640/314 427/649/314 428/650/314
f 423/643/315 421/641/315 429/651/315 430/652/315
f 424/644/316 422/642/316 428/650/316 431/653/316
f 425/645/317 423/643/317 430/652/317 432/654/317
f 426/646/318 424/644/318 431/653/318 433/655/318
f 412/647/319 425/645/319 432/654/319 434/656/319
f 414/634/320 426/648/320 433/657/320 435/658/320
f 413/633/321 412/632/321 434/659/321 436/660/321
f 415/635/322 414/634/322 435/658/322 437/661/322
f 416/636/323 413/633/323 436/660/323 438/662/323
f 417/637/324 415/635/324 437/661/324 439/663/324
f 418/638/325 416/636/325 438/662/325 440/664/325
f 419/639/326 417/637/326 439/663/326 441/665/326
f 420/640/327 199/369/327 427/649/327
f 201/371/328 418/638/328 440/664/328
f 421/641/329 419/639/329 441/665/329 429/651/329
f 437/661/330 435/658/330 442/666/330 443/667/330
f 438/662/331 436/660/331 444/668/331 445/669/331
f 439/663/332 437/661/332 443/667/332 446/670/332
f 440/664/333 438/662/333 445/669/333 447/671/333
f 441/665/334 439/663/334 446/670/334 448/672/334
f 427/649/335 199/369/335 449/673/335
f 201/371/336 440/664/336 447/671/336
f 429/651/337 441/665/337 448/672/337 450/674/337
f 428/650/338 427/649/338 449/673/338 451/675/338
f 430/652/339 429/651/339 450/674/339 452/676/339
f 431/653/340 428/650/340 451/675/340 453/677/340
f 432/654/341 430/652/341 452/676/341 454/678/341
f 433/655/342 431/653/342 453/677/342 455/679/342
f 434/656/343 432/654/343 454/678/343 456/680/343
f 435/658/344 433/657/344 455/681/344 442/666/344
f 436/660/345 434/659/345 456/682/345 444/668/345
f 452/676/346 450/674/346 457/683/346 458/684/346
f 453/677/347 451/675/347 459/685/347 460/686/347
f 454/678/348 452/676/348 458/684/348 461/687/348
f 455/679/349 453/677/349 460/686/349 462/688/349
f 456/680/350 454/678/350 461/687/350 463/689/350
f 442/666/351 455/681/351 462/690/351 464/691/351
f 444/668/352 456/682/352 463/692/352 465/693/352
f 443/667/353 442/666/353 464/691/353 466/694/353
f 445/669/354 444/668/354 465/693/354 467/695/354
f 446/670/355 443/667/355 466/694/355 468/696/355
f 447/671/356 445/669/356 467/695/356 469/697/356
f 448/672/357 446/670/357 468/696/357 470/698/357
f 449/673/358 199/369/358 471/699/358
f 201/371/359 447/671/359 469/697/359
f 450/674/360 448/672/360 470/698/360 457/683/360
f 451/675/361 449/673/361 471/699/361 459/685/361
f 467/695/362 465/693/362 472/700/362 473/701/362
f 468/696/363 466/694/363 474/702/363 475/703/363
f 469/697/364 467/695/364 473/701/364 476/704/364
f 470/698/365 468/696/365 475/703/365 477/705/365
f 471/699/366 199/369/366 478/706/366
f 201/371/367 469/697/367 476/704/367
f 457/683/368 470/698/368 477/705/368 479/707/368
f 459/685/369 471/699/369 478/706/369 480/708/369
f 458/684/370 457/683/370 479/707/370 481/709/370
f 460/686/371 459/685/371 480/708/371 482/710/371
f 461/687/372 458/684/372 481/709/372 483/711/372
f 462/688/373 460/686/373 482/710/373 484/712/373
f 463/692/374 461/713/374 483/714/374 485/715/374
f 464/716/375 462/688/375 484/712/375 486/717/375
f 465/693/376 463/692/376 485/715/376 472/700/376
f 466/694/377 464/691/377 486/718/377 474/702/377
f 482/710/378 480/708/378 487/719/378 488/720/378
f 483/721/379 481/722/379 489/723/379 490/724/379
f 484/712/380 482/710/380 488/720/380 491/725/380
f 485/715/381 483/714/381 490/726/381 492/727/381
f 486/717/382 484/712/382 491/725/382 493/728/382
f 472/700/383 485/715/383 492/727/383 494/729/383
f 474/730/384 486/731/384 493/732/384 495/733/384
f 473/701/385 472/700/385 494/729/385 496/734/385
f 475/735/386 474/730/386 495/733/386 497/736/386
f 476/704/387 473/701/387 496/734/387 498/737/387
f 477/738/388 475/735/388 497/736/388 499/739/388
f 478/706/389 199/369/389 500/740/389
f 201/371/390 476/704/390 498/737/390
f 479/741/391 477/738/391 499/739/391 501/742/391
f 480/708/392 478/706/392 500/740/392 487/719/392
f 481/722/393 479/741/393 501/742/393 489/723/393
f 497/736/394 495/733/394 502/743/394 503/744/394
f 498/737/395 496/734/395 504/745/395 505/746/395
f 499/739/396 497/736/396 503/744/396 506/747/396
f 500/740/397 199/369/397 507/748/397
f 201/371/398 498/737/398 505/746/398
f 501/742/399 499/739/399 506/747/399 508/749/399
f 487/719/400 500/740/400 507/748/400 509/750/400
f 489/723/401 501/742/401 508/749/401 510/751/401
f 488/720/402 487/719/402 509/750/402 511/752/402
f 490/724/403 489/723/403 510/751/403 512/753/403
f 491/725/404 488/720/404 511/752/404 513/754/404
f 492/755/405 490/724/405 512/753/405 514/756/405
f 493/732/406 491/757/406 513/758/406 515/759/406
f 494/729/407 492/727/407 514/760/407 516/761/407
f 495/733/408 493/732/408 515/759/408 502/743/408
f 496/734/409 494/729/409 516/761/409 504/745/409
f 512/753/410 510/751/410 517/762/410 518/763/410
f 513/754/411 511/752/411 519/764/411 520/765/411
f 514/756/412 512/753/412 518/763/412 521/766/412
f 515/759/413 513/758/413 520/767/413 522/768/413
f 516/761/414 514/760/414 521/769/414 523/770/414
f 502/743/415 515/759/415 522/768/415 524/771/415
f 504/745/416 516/761/416 523/770/416 525/772/416
f 503/744/417 502/743/417 524/771/417 526/773/417
f 505/746/418 504/745/418 525/772/418 527/774/418
f 506/747/419 503/744/419 526/773/419 528/775/419
f 507/748/420 199/369/420 529/776/420
f 201/371/421 505/746/421 527/774/421
f 508/749/422 506/747/422 528/775/422 530/777/422
f 509/750/423 507/748/423 529/776/423 531/778/423
f 510/751/424 508/749/424 530/777/424 517/762/424
f 511/752/425 509/750/425 531/778/425 519/764/425
f 527/774/426 525/772/426 532/779/426 533/780/426
f 528/775/427 526/773/427 534/781/427 535/782/427
f 529/776/428 199/369/428 536/783/428
f 201/371/429 527/774/429 533/780/429
f 530/777/430 528/775/430 535/782/430 537/784/430
f 531/778/431 529/776/431 536/783/431 538/785/431
f 517/762/432 530/777/432 537/784/432 539/786/432
f 519/764/433 531/778/433 538/785/433 540/787/433
f 518/763/434 517/762/434 539/786/434 541/788/434
f 520/765/435 519/764/435 540/787/435 542/789/435
f 521/766/436 518/763/436 541/788/436 543/790/436
f 522/768/437 520/767/437 542/791/437 544/792/437
f 523/770/438 521/769/438 543/793/438 545/794/438
f 524/771/439 522/768/439 544/792/439 546/795/439
f 525/772/440 523/770/440 545/794/440 532/779/440
f 526/773/441 524/771/441 546/795/441 534/781/441
f 543/790/442 541/788/442 547/796/442 548/797/442
f 544/792/443 542/791/443 549/798/443 550/799/443
f 545/794/444 543/793/444 548/800/444 551/801/444
f 546/795/445 544/792/445 550/799/445 552/802/445
f 532/779/446 545/794/446 551/801/446 553/803/446
f 534/781/447 546/795/447 552/802/447 554/804/447
f 533/780/448 532/779/448 553/803/448 555/805/448
f 535/782/449 534/781/449 554/804/449 556/806/449
f 536/783/450 199/369/450 557/807/450
f 201/371/451 533/780/451 555/805/451
f 537/784/452 535/782/452 556/806/452 558/808/452
f 538/785/453 536/783/453 557/807/453 559/809/453
f 539/786/454 537/784/454 558/808/454 560/810/454
f 540/787/455 538/785/455 559/809/455 561/811/455
f 541/788/456 539/786/456 560/810/456 547/796/456
f 542/789/457 540/787/457 561/811/457 549/812/457
f 557/807/458 199/369/458 562/813/458
f 201/371/459 555/805/459 563/814/459
f 558/808/460 556/806/460 564/815/460 565/816/460
f 559/809/461 557/807/461 562/813/461 566/817/461
f 560/810/462 558/808/462 565/816/462 567/818/462
f 561/811/463 559/809/463 566/817/463 568/819/463
f 547/796/464 560/810/464 567/818/464 569/820/464
f 549/812/465 561/811/465 568/819/465 570/821/465
f 548/797/466 547/796/466 569/820/466 571/822/466
f 550/799/467 549/798/467 570/823/467 572/824/467
f 551/801/468 548/800/468 571/825/468 573/826/468
f 552/802/469 550/799/469 572/824/469 574/827/469
f 553/803/470 551/801/470 573/826/470 575/828/470
f 554/804/471 552/802/471 574/827/471 576/829/471
f 555/805/472 553/803/472 575/828/472 563/814/472
f 556/806/473 554/804/473 576/829/473 564/815/473
f 572/824/474 570/823/474 577/830/474 578/831/474
f 573/826/475 571/825/475 579/832/475 580/833/475
f 574/827/476 572/824/476 578/831/476 581/834/476
f 575/828/477 573/826/477 580/833/477 582/835/477
f 576/829/478 574/827/478 581/834/478 583/836/478
f 563/814/479 575/828/479 582/835/479 584/837/479
f 564/815/480 576/829/480 583/836/480 585/838/480
f 562/813/481 199/369/481 586/839/481
f 201/371/482 563/814/482 584/837/482
f 565/816/483 564/815/483 585/838/483 587/840/483
f 566/817/484 562/813/484 586/839/484 588/841/484
f 567/818/485 565/816/485 587/840/485 589/842/485
f 568/819/486 566/817/486 588/841/486 590/843/486
f 569/820/487 567/818/487 589/842/487 591/844/487
f 570/821/488 568/819/488 590/843/488 577/845/488
f 571/822/489 569/820/489 591/844/489 579/846/489
f 587/840/490 585/838/490 592/847/490 593/848/490
f 588/841/491 586/839/491 594/849/491 595/850/491
f 589/842/492 587/840/492 593/848/492 596/851/492
f 590/843/493 588/841/493 595/850/493 597/852/493
f 591/844/494 589/842/494 596/851/494 598/853/494
f 577/845/495 590/843/495 597/852/495 599/854/495
f 579/832/496 591/855/496 598/856/496 600/857/496
f 578/831/497 577/830/497 599/858/497 601/859/497
f 580/833/498 579/832/498 600/857/498 602/860/498
f 581/834/499 578/831/499 601/859/499 603/861/499
f 582/835/500 580/833/500 602/860/500 604/862/500
f 583/836/501 581/834/501 603/861/501 605/863/501
f 584/837/502 582/835/502 604/862/502 606/864/502
f 585/838/503 583/836/503 605/863/503 592/847/503
f 586/839/504 199/369/504 594/849/504
f 201/371/505 584/837/505 606/864/505
f 602/860/506 600/857/506 607/865/506 608/866/506
f 603/867/507 601/868/507 609/869/507 610/870/507
f 604/862/508 602/860/508 608/866/508 611/871/508
f 605/872/509 603/867/509 610/870/509 612/873/509
f 606/864/510 604/862/510 611/871/510 613/874/510
f 592/875/511 605/872/511 612/873/511 614/876/511
f 594/849/512 199/369/512 615/877/512
f 201/371/513 606/864/513 613/874/513
f 593/878/514 592/875/514 614/876/514 616/879/514
f 595/850/515 594/849/515 615/877/515 617/880/515
f 596/881/516 593/878/516 616/879/516 618/882/516
f 597/852/517 595/850/517 617/880/517 619/883/517
f 598/884/518 596/881/518 618/882/518 620/885/518
f 599/854/519 597/852/519 619/883/519 621/886/519
f 600/857/520 598/856/520 620/887/520 607/865/520
f 601/888/521 599/854/521 621/886/521 609/889/521
f 617/880/522 615/877/522 622/890/522 623/891/522
f 618/882/523 616/879/523 624/892/523 625/893/523
f 619/883/524 617/880/524 623/891/524 626/894/524
f 620/885/525 618/882/525 625/893/525 627/895/525
f 621/886/526 619/883/526 626/894/526 628/896/526
f 607/897/527 620/885/527 627/895/527 629/898/527
f 609/869/528 621/899/528 628/900/528 630/901/528
f 608/866/529 607/865/529 629/902/529 631/903/529
f 610/870/530 609/869/530 630/901/530 632/904/530
f 611/871/531 608/866/531 631/903/531 633/905/531
f 612/873/532 610/870/532 632/904/532 634/906/532
f 613/874/533 611/871/533 633/905/533 635/907/533
f 614/876/534 612/873/534 634/906/534 636/908/534
f 615/877/535 199/369/535 622/890/535
f 201/371/536 613/874/536 635/907/536
f 616/879/537 614/876/537 636/908/537 624/892/537
f 632/904/538 630/901/538 637/909/538 638/910/538
f 633/905/539 631/903/539 639/911/539 640/912/539
f 634/906/540 632/904/540 638/910/540 641/913/540
f 635/907/541 633/905/541 640/912/541 642/914/541
f 636/908/542 634/906/542 641/913/542 643/915/542
f 622/890/543 199/369/543 644/916/543
f 201/371/544 635/907/544 642/914/544
f 624/892/545 636/908/545 643/915/545 645/917/545
f 623/891/546 622/890/546 644/916/546 646/918/546
f 625/893/547 624/892/547 645/917/547 647/919/547
f 626/894/548 623/891/548 646/918/548 648/920/548
f 627/895/549 625/893/549 647/919/549 649/921/549
f 628/896/550 626/894/550 648/920/550 650/922/550
f 629/898/551 627/895/551 649/921/551 651/923/551
f 630/901/552 628/900/552 650/924/552 637/909/552
f 631/903/553 629/902/553 651/925/553 639/911/553
f 647/919/554 645/917/554 171/337/554 170/336/554
f 648/920/555 646/918/555 175/341/555 174/340/555
f 649/921/556 647/919/556 170/336/556 178/344/556
f 650/922/557 648/920/557 174/340/557 180/346/557
f 651/923/558 649/921/558 178/344/558 182/348/558
f 637/909/559 650/924/559 180/351/559 184/350/559
f 639/911/560 651/925/560 182/355/560 186/354/560
f 638/910/561 637/909/561 184/350/561 188/358/561
f 640/912/562 639/911/562 186/354/562 190/360/562
f 641/913/563 638/910/563 188/358/563 192/362/563
f 642/914/564 640/912/564 190/360/564 194/364/564
f 643/915/565 641/913/565 192/362/565 196/366/565
f 644/916/566 199/369/566 198/368/566
f 201/371/567 642/914/567 194/364/567
f 645/917/568 643/915/568 196/366/568 171/337/568
f 646/918/569 644/916/569 198/368/569 175/341/569
f 159/926/56 158/927/56 672/928/56 673/929/56
f 122/930/570 121/931/53 659/932/53 660/933/570
f 112/934/571 111/935/57 653/936/57 654/937/571
f 116/938/57 118/939/57 657/940/57 656/941/57
f 148/942/52 137/943/52 665/944/52 667/945/52
f 114/946/57 116/938/57 656/941/57 655/947/57
f 111/935/57 114/946/57 655/947/57 653/936/57
f 137/943/52 130/948/52 663/949/52 665/944/52
f 120/950/57 122/951/570 660/952/570 658/953/57
f 121/931/53 129/954/53 662/955/53 659/932/53
f 109/956/52 112/957/571 654/958/571 652/959/52
f 160/960/56 159/926/56 673/929/56 674/961/56
f 118/939/57 120/950/57 658/953/57 657/940/57
f 158/927/56 157/962/56 671/963/56 672/928/56
f 156/964/56 155/965/572 669/966/572 670/967/56
f 129/954/53 136/968/53 664/969/53 662/955/53
f 157/962/56 156/964/56 670/967/56 671/963/56
f 154/970/53 161/971/573 675/972/573 668/973/53
f 136/968/53 147/974/53 666/975/53 664/969/53
f 130/948/52 123/976/52 661/977/52 663/949/52
f 123/976/52 109/956/52 652/959/52 661/977/52
f 161/978/573 160/960/56 674/961/56 675/979/573
f 155/980/572 148/942/52 667/945/52 669/981/572
f 147/974/53 154/970/53 668/973/53 666/975/53
f 659/982/31 662/983/31 686/984/31 683/985/31
f 666/986/31 668/987/31 692/988/31 690/989/31
f 672/990/31 671/991/31 695/992/31 696/993/31
f 667/994/31 665/995/31 689/996/31 691/997/31
f 656/998/31 657/999/31 681/1000/31 680/1001/31
f 673/1002/31 672/990/31 696/993/31 697/1003/31
f 668/987/31 675/1004/31 699/1005/31 692/988/31
f 669/1006/31 667/994/31 691/997/31 693/1007/31
f 654/1008/31 653/1009/31 677/1010/31 678/1011/31
f 663/1012/31 661/1013/31 685/1014/31 687/1015/31
f 657/999/31 658/1016/31 682/1017/31 681/1000/31
f 653/1009/31 655/1018/31 679/1019/31 677/1010/31
f 670/1020/31 669/1006/31 693/1007/31 694/1021/31
f 658/1016/31 660/1022/31 684/1023/31 682/1017/31
f 674/1024/31 673/1002/31 697/1003/31 698/1025/31
f 662/983/31 664/1026/31 688/1027/31 686/984/31
f 671/991/31 670/1020/31 694/1021/31 695/992/31
f 664/1026/31 666/986/31 690/989/31 688/1027/31
f 675/1004/31 674/1024/31 698/1025/31 699/1005/31
f 655/1018/31 656/998/31 680/1001/31 679/1019/31
f 652/1028/31 654/1008/31 678/1011/31 676/1029/31
f 660/1022/31 659/982/31 683/985/31 684/1023/31
f 665/995/31 663/1012/31 687/1015/31 689/996/31
f 661/1013/31 652/1028/31 676/1029/31 685/1014/31
f 694/1030/57 693/1031/570 717/1032/570 718/1033/57
f 682/1034/56 684/1035/572 708/1036/572 706/1037/56
f 698/1038/57 697/1039/57 721/1040/57 722/1041/57
f 686/1042/52 688/1043/52 712/1044/52 710/1045/52
f 695/1046/57 694/1030/57 718/1033/57 719/1047/57
f 688/1043/52 690/1048/52 714/1049/52 712/1044/52
f 699/1050/571 698/1038/57 722/1041/57 723/1051/571
f 679/1052/56 680/1053/56 704/1054/56 703/1055/56
f 676/1056/53 678/1057/573 702/1058/573 700/1059/53
f 684/1060/572 683/1061/52 707/1062/52 708/1063/572
f 689/1064/53 687/1065/53 711/1066/53 713/1067/53
f 685/1068/53 676/1056/53 700/1059/53 709/1069/53
f 683/1061/52 686/1042/52 710/1045/52 707/1062/52
f 690/1048/52 692/1070/52 716/1071/52 714/1049/52
f 696/1072/57 695/1046/57 719/1047/57 720/1073/57
f 691/1074/53 689/1064/53 713/1067/53 715/1075/53
f 680/1053/56 681/1076/56 705/1077/56 704/1054/56
f 697/1039/57 696/1072/57 720/1073/57 721/1040/57
f 692/1070/52 699/1078/571 723/1079/571 716/1071/52
f 693/1080/570 691/1074/53 715/1075/53 717/1081/570
f 678/1082/573 677/1083/56 701/1084/56 702/1085/573
f 687/1065/53 685/1068/53 709/1069/53 711/1066/53
f 681/1076/56 682/1034/56 706/1037/56 705/1077/56
f 677/1083/56 679/1052/56 703/1055/56 701/1084/56
